<?xml version="1.0" encoding="UTF-8"?>
<svg version="1.1" xmlns="http://www.w3.org/2000/svg" width="388" height="414">
<path d="M0 0 C0.64195312 0.42087891 1.28390625 0.84175781 1.9453125 1.27539062 C4.99455059 3.28334634 8.02811524 5.3135445 11.0546875 7.35546875 C15.50345604 10.35039877 20.00021923 13.26998244 24.5 16.1875 C26.20833757 17.29556638 27.91667081 18.40363944 29.625 19.51171875 C30.50027344 20.07938965 31.37554687 20.64706055 32.27734375 21.23193359 C37.02311721 24.31379258 41.76124344 27.40736707 46.5 30.5 C56.17589242 36.81303323 65.85987892 43.11350319 75.54833984 49.40722656 C78.02854037 51.01854186 80.50846414 52.63028218 82.98828125 54.2421875 C83.81440918 54.7791626 84.64053711 55.3161377 85.49169922 55.86938477 C87.16662281 56.95823183 88.84142714 58.04726238 90.51611328 59.13647461 C94.59227945 61.7872111 98.67043481 64.43474773 102.75390625 67.07421875 C106.88078264 69.74311454 110.99799811 72.42649068 115.11132812 75.11621094 C117.20364231 76.4806714 119.2984764 77.84064636 121.39648438 79.19628906 C124.44020241 81.163846 127.47520204 83.14433318 130.50582886 85.13198853 C131.69344894 85.90800088 132.88375429 86.67992192 134.07693481 87.44735718 C143.43084434 93.46965563 151.33411676 99.11632885 155 110 C155.38031673 113.40023708 155.38031673 113.40023708 155.38768005 117.01402283 C155.39306559 117.68406186 155.39845113 118.3541009 155.40399987 119.04444414 C155.41821049 121.27062496 155.41119326 123.49620533 155.40405273 125.72241211 C155.40975993 127.32621231 155.41672555 128.93000845 155.42485046 130.53379822 C155.44275826 134.87681638 155.44161801 139.21963223 155.43590808 143.56267619 C155.43281283 147.19335266 155.43891241 150.82399047 155.44494683 154.45466143 C155.45898258 163.02213462 155.45743863 171.58950808 155.44604492 180.15698242 C155.43456397 188.98495053 155.44864111 197.81261484 155.4754414 206.64054292 C155.49761781 214.23057691 155.50423142 221.82051567 155.49836498 229.41057974 C155.49499893 233.9391222 155.49738712 238.46746992 155.51461601 242.99598503 C155.53011413 247.25526409 155.52609805 251.51409399 155.50731087 255.77335548 C155.50363292 257.33256827 155.50671026 258.89181454 155.51719666 260.4509964 C155.58340025 271.11200691 154.5200928 278.9691794 147.09765625 287.12109375 C142.647526 291.10715083 137.49345721 294.19089068 132.47705078 297.40869141 C127.48468674 300.6158892 122.5209081 303.86563478 117.5625 307.125 C116.54430176 307.78169678 115.52610352 308.43839355 114.47705078 309.11499023 C95.83876745 321.37266893 88.87824115 337.83075007 82.25 358.375 C81 362 81 362 79 364 C74.39203282 364.67530553 69.872948 364.0530313 65.375 363 C48.48153985 359.36502947 31.75022204 362.95991153 17.29492188 372.07519531 C13.50260507 374.5291698 9.77095959 377.07029743 6.04003906 379.61621094 C-26.98273736 402.01605497 -26.98273736 402.01605497 -49.2265625 398.48828125 C-59.5201782 395.81715313 -68.21059407 389.77297002 -77 384 C-77.64195312 383.57912109 -78.28390625 383.15824219 -78.9453125 382.72460938 C-81.99063015 380.71923531 -85.02031887 378.69168846 -88.04296875 376.65234375 C-92.55789987 373.61285023 -97.12132591 370.64924759 -101.6875 367.6875 C-102.95702515 366.86378906 -102.95702515 366.86378906 -104.25219727 366.0234375 C-105.97884137 364.90355796 -107.70564883 363.78393023 -109.43261719 362.66455078 C-113.56124314 359.98777522 -117.68696503 357.30653616 -121.8125 354.625 C-122.62936279 354.09414795 -123.44622559 353.5632959 -124.2878418 353.01635742 C-131.67256881 348.21589027 -139.04955824 343.40359207 -146.42626953 338.59082031 C-152.67657347 334.51357617 -158.9302171 330.441525 -165.1875 326.375 C-166.00597412 325.84285889 -166.82444824 325.31071777 -167.66772461 324.76245117 C-171.68960029 322.1482519 -175.71369136 319.53758043 -179.7421875 316.93359375 C-183.87469881 314.26102613 -187.99688603 311.5729805 -192.11572266 308.87939453 C-194.20067138 307.52084237 -196.28852259 306.16765906 -198.38037109 304.81982422 C-201.41171755 302.86607888 -204.43363192 300.89835723 -207.45089722 298.92294312 C-208.63139114 298.15330826 -209.81484446 297.38818973 -211.00149536 296.62808228 C-221.61458918 289.82258512 -229.52450008 284.08202524 -232.42647362 271.44013023 C-233.45798026 265.25293936 -233.40867125 259.08262315 -233.37231445 252.82739258 C-233.37474848 251.34270473 -233.37847369 249.85801854 -233.38337708 248.37333679 C-233.39270374 244.37761344 -233.38343197 240.38213858 -233.37004495 236.38643479 C-233.35864556 232.18663433 -233.36284431 227.98684459 -233.36479187 223.78703308 C-233.36567189 216.7405496 -233.35465342 209.69416286 -233.33618164 202.64770508 C-233.31499385 194.51898121 -233.31151116 186.39039867 -233.3177436 178.26165277 C-233.32345082 170.41384899 -233.31777719 162.56609461 -233.30657005 154.71829796 C-233.30194455 151.39037849 -233.30104126 148.06248943 -233.3031559 144.73456764 C-233.3050486 140.81347608 -233.29685994 136.89252704 -233.2810955 132.97146797 C-233.27687761 131.53845561 -233.27598516 130.10542871 -233.27878571 128.67241287 C-233.29835597 116.86122751 -232.84559293 106.90842801 -224.9375 97.5625 C-217.58895822 91.15206994 -209.46157152 85.95676593 -201.18408203 80.85058594 C-196.58233077 78.00759655 -192.05118892 75.08062257 -187.5625 72.0625 C-180.1939556 67.11107832 -172.74615364 62.28917411 -165.28613281 57.47705078 C-161.24788237 54.86797184 -157.21785262 52.24625615 -153.1875 49.625 C-152.34912598 49.07980713 -151.51075195 48.53461426 -150.64697266 47.97290039 C-148.94300808 46.86478573 -147.23906933 45.75663135 -145.53515625 44.6484375 C-143.05509762 43.03582619 -140.57452389 41.42401072 -138.09375 39.8125 C-129.22366198 34.05008319 -120.35882802 28.27971438 -111.5 22.5 C-94.44562323 11.37379818 -94.44562323 11.37379818 -87.15649414 6.65039062 C-83.21191699 4.09397754 -79.27718711 1.52505044 -75.36328125 -1.078125 C-47.83177191 -19.31063489 -27.31651528 -17.94176138 0 0 Z M-64.375 90.125 C-65.45064209 90.81932129 -66.52628418 91.51364258 -67.63452148 92.22900391 C-76.99665394 98.28434801 -86.26132405 104.48649468 -95.52270508 110.69433594 C-101.4792875 114.68275488 -107.46017957 118.61269647 -113.5625 122.375 C-119.34222594 125.94485339 -125.06893867 129.5872325 -130.75 133.3125 C-131.5138501 133.80476074 -132.2777002 134.29702148 -133.06469727 134.80419922 C-139.29859709 138.92459165 -142.98464616 142.61409339 -145 150 C-145.18856362 152.78954962 -145.28384947 155.47771613 -145.2746582 158.26513672 C-145.27976913 159.07246246 -145.28488007 159.87978821 -145.29014587 160.71157837 C-145.30399129 163.36769117 -145.30308881 166.023543 -145.30078125 168.6796875 C-145.30467118 170.53524877 -145.30900646 172.39080916 -145.31376648 174.24636841 C-145.321218 178.13156015 -145.32094532 182.016661 -145.31567383 185.90185547 C-145.30988306 190.86708271 -145.32680591 195.83193645 -145.3500185 200.79710197 C-145.36479061 204.62853145 -145.36562277 208.45987171 -145.36250877 212.29132462 C-145.36302032 214.12125513 -145.36822656 215.95119085 -145.37832069 217.7810936 C-145.39073436 220.34632995 -145.38386407 222.91084832 -145.37231445 225.47607422 C-145.37995819 226.22334778 -145.38760193 226.97062134 -145.39547729 227.74053955 C-145.33640498 233.71248383 -144.27767191 239.48548128 -140.13818359 244.05541992 C-139.44031738 244.54631104 -138.74245117 245.03720215 -138.0234375 245.54296875 C-137.22389648 246.11321777 -136.42435547 246.6834668 -135.60058594 247.27099609 C-134.74239258 247.84156738 -133.88419922 248.41213867 -133 249 C-131.69337402 249.86939209 -131.69337402 249.86939209 -130.36035156 250.75634766 C-127.46670216 252.63850014 -124.54962297 254.47887621 -121.625 256.3125 C-119.40869814 257.71522269 -117.19345402 259.11941343 -114.98046875 260.52734375 C-114.41173538 260.88906677 -113.84300201 261.25078979 -113.2570343 261.62347412 C-106.75139442 265.77529888 -100.34535086 270.07446527 -93.9375 274.375 C-85.54816683 280.00066826 -77.12084499 285.53556 -68.51171875 290.8203125 C-66.0473999 292.33565182 -63.61978989 293.89602638 -61.20703125 295.4921875 C-48.69087898 303.84167873 -48.69087898 303.84167873 -34 305 C-26.84746376 302.8262195 -20.92350514 299.23901108 -14.875 294.9375 C-1.39357579 285.37942636 9.86495612 284.3390396 26 286 C26.44730469 284.78183594 26.89460937 283.56367188 27.35546875 282.30859375 C27.96560504 280.68469254 28.57631266 279.06100592 29.1875 277.4375 C29.47947266 276.63763672 29.77144531 275.83777344 30.07226562 275.01367188 C33.2911199 266.53389449 37.20104256 260.98490583 44.75 255.9375 C45.36544678 255.51122314 45.98089355 255.08494629 46.61499023 254.64575195 C50.06067453 252.2697134 53.5566462 249.97367021 57.0625 247.6875 C61.44135283 244.80088194 65.28807317 242.13578048 67 237 C67.1119706 234.16183267 67.16769063 231.34759117 67.17700195 228.50878906 C67.18685875 227.20826599 67.18685875 227.20826599 67.19691467 225.88146973 C67.21663986 223.0095206 67.22830885 220.13762377 67.23828125 217.265625 C67.24235678 216.28418266 67.2464323 215.30274033 67.25063133 214.29155731 C67.27148924 209.09639191 67.2857919 203.9012529 67.29516602 198.70605469 C67.30622688 193.34488628 67.34062399 187.98413334 67.38033772 182.62311172 C67.40650574 178.49663531 67.41485805 174.37025784 67.41844749 170.24370575 C67.42331334 168.2677912 67.43492725 166.29188106 67.45348549 164.31604767 C67.47787965 161.54662835 67.47691135 158.77828333 67.4699707 156.00878906 C67.48278076 155.19710266 67.49559082 154.38541626 67.50878906 153.5491333 C67.45745523 147.91171862 66.19007992 144.66452044 63 140 C61.34355099 138.31411003 61.34355099 138.31411003 59.48046875 137.21875 C58.80000488 136.77732666 58.11954102 136.33590332 57.41845703 135.88110352 C56.68224121 135.42533936 55.94602539 134.9695752 55.1875 134.5 C54.40487793 133.99718506 53.62225586 133.49437012 52.81591797 132.97631836 C51.11561685 131.884359 49.41134685 130.79856038 47.70361328 129.71826172 C43.95615134 127.33658959 40.2454196 124.90019431 36.53173828 122.46630859 C31.69565333 119.29884761 26.84702111 116.15068931 22 113 C20.26430976 111.87111398 18.52863219 110.74220847 16.79296875 109.61328125 C14.31782199 108.00354517 11.84232615 106.39435932 9.36572266 104.78686523 C5.1480137 102.04919483 0.93534563 99.30422205 -3.26953125 96.546875 C-19.51101598 84.44818442 -19.51101598 84.44818442 -38.125 78.6875 C-39.01445312 78.65011719 -39.90390625 78.61273438 -40.8203125 78.57421875 C-49.61930487 79.7524622 -57.10116787 85.38389085 -64.375 90.125 Z " fill="#065717" transform="translate(233,15)"/>
</svg>
