<?xml version="1.0" encoding="UTF-8"?>
<svg version="1.1" xmlns="http://www.w3.org/2000/svg" width="934" height="414">
<path d="M0 0 C4.59306877 3.10437155 9.23882357 6.12522624 13.890625 9.140625 C14.73423584 9.6879126 15.57784668 10.2352002 16.44702148 10.79907227 C18.17203096 11.9179047 19.89721098 13.03647424 21.62255859 14.15478516 C25.81846027 16.87557135 30.01064642 19.60206837 34.203125 22.328125 C35.87367559 23.41409684 37.54424852 24.50003433 39.21484375 25.5859375 C40.04032715 26.12250977 40.86581055 26.65908203 41.71630859 27.21191406 C44.1765561 28.81085756 46.63706993 30.40939045 49.09765625 32.0078125 C58.95040397 38.4089607 68.79574721 44.82133843 78.63598633 51.24169922 C84.82110213 55.27657556 91.0102765 59.30512864 97.203125 63.328125 C107.38704451 69.94541597 117.56683018 76.56887626 127.73046875 83.21728516 C129.83993248 84.59151913 131.95619346 85.95374276 134.078125 87.30859375 C142.88623916 93.00083753 150.20351076 98.38760863 153.203125 108.828125 C153.7817585 114.13558609 153.76139977 119.41556356 153.73657227 124.74584961 C153.74363963 126.346703 153.75238807 127.94754971 153.76268005 129.54838562 C153.78509232 133.87494287 153.78225355 138.2011329 153.77335858 142.52772593 C153.7682314 146.14838319 153.77555526 149.76897249 153.78283066 153.38962275 C153.79980375 161.93518384 153.79629 170.48056625 153.77954102 179.02612305 C153.76262077 187.82348795 153.77845867 196.62035661 153.8107639 205.41766733 C153.83750763 212.98910488 153.84472295 220.56038841 153.83624882 228.13186842 C153.8313337 232.64595118 153.83345821 237.15973548 153.85403633 241.67378044 C153.87246898 245.92005366 153.86634306 250.16561623 153.84183693 254.41185188 C153.83685301 255.96377335 153.84025553 257.51574969 153.85298538 259.06762695 C153.93031287 269.310308 152.87692614 277.24807245 146.12182617 285.31298828 C140.5312636 289.94764469 134.70926707 293.91718591 128.515625 297.703125 C102.10338497 314.20275421 89.48790363 328.29617663 80.09765625 358.46484375 C79.203125 360.828125 79.203125 360.828125 77.203125 362.828125 C72.77986665 363.14407202 69.06503322 362.85704321 64.765625 361.828125 C46.55255729 357.93333052 29.18086386 362.04401623 13.71484375 372.0546875 C10.53613903 374.15318396 7.38930852 376.29746317 4.24316406 378.44433594 C-28.85379498 400.89449916 -28.85379498 400.89449916 -49.72265625 397.328125 C-60.58634004 394.62372847 -69.41754524 388.90162851 -78.5703125 382.68359375 C-83.10473154 379.60536733 -87.69695134 376.61976108 -92.296875 373.640625 C-94.00527354 372.53265263 -95.71360538 371.42457739 -97.421875 370.31640625 C-98.29714844 369.74873535 -99.17242187 369.18106445 -100.07421875 368.59619141 C-104.81999221 365.51433242 -109.55811844 362.42075793 -114.296875 359.328125 C-124.78895118 352.48257292 -135.2910232 345.65251091 -145.796875 338.828125 C-157.27363425 331.37305752 -168.74461074 323.90927781 -180.20556641 316.42993164 C-185.77139582 312.79846992 -191.34165771 309.17398018 -196.91699219 305.55712891 C-200.17075492 303.44509159 -203.42138309 301.32826522 -206.67138672 299.21044922 C-208.58648801 297.96495146 -210.50565473 296.72600854 -212.42578125 295.48828125 C-221.92166399 289.2963477 -229.94240556 283.94487806 -233.796875 272.828125 C-234.55875324 268.30049737 -234.92351276 263.94688381 -234.93058777 259.35905457 C-234.93485275 258.10176041 -234.93911774 256.84446625 -234.94351196 255.54907227 C-234.94316252 254.17358395 -234.94270103 252.79809566 -234.94213867 251.42260742 C-234.94513404 249.9599855 -234.94853744 248.49736437 -234.95231628 247.03474426 C-234.96112211 243.07593166 -234.96349296 239.11714069 -234.96413207 235.15831923 C-234.96484452 232.68090006 -234.96698255 230.20348632 -234.96962929 227.7260685 C-234.97887147 219.07152586 -234.9829656 210.41699858 -234.98217773 201.76245117 C-234.98157728 193.71395653 -234.99212574 185.66552898 -235.0079214 177.6170513 C-235.0210263 170.69111798 -235.02636039 163.7652065 -235.02572232 156.83926088 C-235.0254682 152.70976894 -235.02827193 148.58033667 -235.03890038 144.45085716 C-235.04863113 140.56432238 -235.04862667 136.67790371 -235.04138374 132.79136467 C-235.04034406 131.3716693 -235.04266386 129.95196651 -235.0487442 128.53228378 C-235.1362595 106.66821072 -235.1362595 106.66821072 -227.796875 97.828125 C-222.06905976 92.11276631 -215.80264979 87.65584559 -208.921875 83.453125 C-200.14385212 77.98445155 -191.5056364 72.34397134 -182.921875 66.578125 C-175.35895819 61.5045014 -167.77632212 56.49194584 -160.01025391 51.73339844 C-153.32630654 47.60328105 -146.82196268 43.20262074 -140.296875 38.828125 C-132.6505941 33.70302714 -124.99505872 28.62056572 -117.15014648 23.80249023 C-110.1325908 19.46696544 -103.25398053 14.91778083 -96.359375 10.390625 C-95.08240092 9.5532367 -93.80538301 8.71591526 -92.52832031 7.87866211 C-87.18842639 4.3762694 -81.85238544 0.86878314 -76.53515625 -2.66796875 C-48.26985797 -21.3806008 -27.48139809 -18.59838411 0 0 Z M-67.55859375 89.96484375 C-72.15897613 93.08788964 -76.81807977 96.11726398 -81.484375 99.140625 C-82.32790527 99.68783203 -83.17143555 100.23503906 -84.04052734 100.79882812 C-85.76560507 101.91776217 -87.49086653 103.03641302 -89.21630859 104.15478516 C-94.23857661 107.4114195 -99.2560674 110.67541043 -104.27368164 113.93920898 C-108.56181478 116.7278652 -112.85274385 119.51206417 -117.1484375 122.2890625 C-121.33999392 124.99995623 -125.5241442 127.72182303 -129.70019531 130.45654297 C-131.50769882 131.63895502 -133.31982388 132.81429681 -135.1328125 133.98828125 C-140.44232736 137.5305529 -144.66755952 140.57461038 -146.37763977 147.01554871 C-146.90974385 150.58534248 -146.94438321 154.10432357 -146.94213867 157.7043457 C-146.94549728 158.48226471 -146.9488559 159.26018372 -146.95231628 160.06167603 C-146.96179169 162.62576915 -146.96376776 165.18979672 -146.96484375 167.75390625 C-146.96805896 169.54363532 -146.97142324 171.33336413 -146.97492981 173.12309265 C-146.98091274 176.87300221 -146.98277059 180.62288874 -146.98217773 184.37280273 C-146.98207622 189.16421942 -146.99572099 193.95548756 -147.01294994 198.74686909 C-147.02410094 202.44360525 -147.02609598 206.14030586 -147.02556801 209.83705711 C-147.02674374 211.60279031 -147.03114253 213.36852456 -147.03890038 215.1342411 C-147.04876193 217.61083829 -147.04579798 220.08711776 -147.03979492 222.5637207 C-147.04541443 223.28451309 -147.05103394 224.00530548 -147.05682373 224.74794006 C-147.02055849 230.67314913 -146.54452258 236.58895154 -142.796875 241.390625 C-134.89221151 247.81316408 -126.23328454 253.17574595 -117.6796875 258.6796875 C-112.266314 262.16464412 -106.87513514 265.68332599 -101.484375 269.203125 C-89.23122558 277.20303613 -89.23122558 277.20303613 -76.95849609 285.17285156 C-72.98347873 287.74704173 -69.02316225 290.33901239 -65.08984375 292.9765625 C-64.33429199 293.47833008 -63.57874023 293.98009766 -62.80029297 294.49707031 C-61.39922057 295.42820423 -60.00316291 296.36695709 -58.61376953 297.31542969 C-52.02604323 301.66931941 -44.80791636 304.79497482 -36.796875 303.828125 C-28.95400994 301.99117488 -22.82462781 298.05936897 -16.29736328 293.5534668 C-2.66596459 284.15979957 7.98385005 282.89561564 24.203125 284.828125 C24.56664062 283.86132812 24.93015625 282.89453125 25.3046875 281.8984375 C32.56309742 262.90869592 41.44301046 254.67439175 58.8984375 244.59375 C62.26469137 242.01485721 64.77790673 239.11713023 65.57450867 234.82891846 C65.72222528 232.47647906 65.74371672 230.15387909 65.72070312 227.796875 C65.7277124 226.90830811 65.73472168 226.01974121 65.74194336 225.10424805 C65.75949198 222.1785521 65.74791169 219.25383011 65.734375 216.328125 C65.73707081 214.28840958 65.74095398 212.24869541 65.74597168 210.20898438 C65.75186249 205.93867735 65.74331707 201.6687055 65.72460938 197.3984375 C65.70182026 191.93067749 65.71494555 186.46370289 65.73889923 180.99597168 C65.75336837 176.78542181 65.74874605 172.57505748 65.73838806 168.36450195 C65.73572387 166.34871324 65.73897969 164.33290757 65.74830627 162.31713867 C65.75849011 159.49743163 65.74294506 156.67898818 65.72070312 153.859375 C65.72880005 153.03010498 65.73689697 152.20083496 65.74523926 151.34643555 C65.66791511 146.04255144 64.6785572 143.06115624 61.203125 138.828125 C59.35879536 137.11657076 59.35879536 137.11657076 57.203125 135.765625 C56.32398438 135.17910156 55.44484375 134.59257812 54.5390625 133.98828125 C53.43820312 133.27542969 52.33734375 132.56257813 51.203125 131.828125 C49.73673685 130.8688599 48.27061259 129.90919133 46.8046875 128.94921875 C42.49923915 126.13694205 38.18295776 123.34167569 33.86425781 120.54980469 C29.63926106 117.81634807 25.42137237 115.07198102 21.203125 112.328125 C16.18200259 109.06282203 11.15981893 105.79920781 6.1328125 102.54296875 C4.44785718 101.45061259 2.76296101 100.35816518 1.078125 99.265625 C0.25739502 98.73404785 -0.56333496 98.2024707 -1.40893555 97.65478516 C-5.56667601 94.9547402 -9.70286963 92.22782392 -13.80859375 89.44921875 C-14.61603027 88.90402588 -15.4234668 88.35883301 -16.25537109 87.79711914 C-17.77361957 86.76904983 -19.28853912 85.73603877 -20.79931641 84.69702148 C-38.65995697 72.60470943 -51.24024367 78.86949151 -67.55859375 89.96484375 Z " fill="#065716" transform="translate(234.796875,16.171875)"/>
<path d="M0 0 C9.66102466 6.2323743 16.19593779 13.96336056 18.921875 25.30078125 C20.22233664 34.89168584 17.36939669 42.67395078 11.86328125 50.45703125 C9.57792644 53.24110857 7.12865632 55.30515099 4.234375 57.44140625 C4.57882381 59.9140739 4.57882381 59.9140739 5.234375 62.44140625 C8.23751248 63.94297499 11.02505022 63.53421829 14.359375 63.50390625 C16.628125 63.48328125 18.896875 63.46265625 21.234375 63.44140625 C21.234375 68.06140625 21.234375 72.68140625 21.234375 77.44140625 C13.00303324 79.49924169 3.80416588 79.7988899 -3.859375 75.78125 C-8.38429695 72.6008233 -11.70367515 68.94423731 -12.765625 63.44140625 C-13.51585937 63.4878125 -14.26609375 63.53421875 -15.0390625 63.58203125 C-25.27758336 63.9430874 -32.92824561 61.5736075 -40.94921875 55.140625 C-48.25978467 48.30170849 -52.18130934 40.27273068 -52.82421875 30.2734375 C-52.63463129 21.11004368 -48.31927869 13.24091448 -42.1015625 6.6875 C-31.25828181 -3.19028309 -13.47327496 -6.66694813 0 0 Z M-31.640625 17.44140625 C-36.08887858 23.72129366 -36.72919819 28.77215024 -35.765625 36.44140625 C-33.33212694 42.67598805 -29.05716249 46.8339112 -23.078125 49.75390625 C-17.10358815 50.99390446 -11.82144641 50.50738772 -6.390625 47.69140625 C-1.89054521 43.834195 1.7909018 39.7091035 2.60546875 33.70703125 C2.76269996 26.56688435 2.02534242 21.87554464 -2.765625 16.44140625 C-7.07191053 12.350435 -10.6776495 10.64678089 -16.578125 10.06640625 C-22.6814263 10.25065686 -27.66480968 12.84764896 -31.640625 17.44140625 Z " fill="#01352A" transform="translate(509.765625,276.55859375)"/>
<path d="M0 0 C6.27 -0.0825 12.54 -0.165 19 -0.25 C20.96324219 -0.28641602 22.92648437 -0.32283203 24.94921875 -0.36035156 C26.52863476 -0.3720486 28.10806295 -0.38223801 29.6875 -0.390625 C30.88922852 -0.4213208 30.88922852 -0.4213208 32.11523438 -0.45263672 C38.79310633 -0.45671855 44.04913953 1.34590538 49.05859375 5.8515625 C49.74115234 6.72941406 49.74115234 6.72941406 50.4375 7.625 C50.91058594 8.21539062 51.38367188 8.80578125 51.87109375 9.4140625 C54.26141714 12.77209467 54.13425976 15.22431786 54.125 19.3125 C54.12886719 21.00826172 54.12886719 21.00826172 54.1328125 22.73828125 C54 26 54 26 53.34765625 28.73046875 C53.23292969 29.47941406 53.11820313 30.22835938 53 31 C54.194747 32.54994205 55.40052641 34.09658453 56.71875 35.54296875 C60.11227156 39.40206492 60.44415506 43.71486298 60.3125 48.66015625 C59.59791172 54.01063599 57.1149998 58.28400018 53.125 61.875 C46.82209386 66.16097617 41.16127242 66.27736233 33.7890625 66.1953125 C32.93014404 66.19329834 32.07122559 66.19128418 31.1862793 66.18920898 C27.99913133 66.1787999 24.81205991 66.15087754 21.625 66.125 C14.48875 66.08375 7.3525 66.0425 0 66 C0 44.22 0 22.44 0 0 Z M16 13 C16 17.29 16 21.58 16 26 C19.10468645 26.08083562 22.20727569 26.14041718 25.3125 26.1875 C26.63411133 26.22520508 26.63411133 26.22520508 27.98242188 26.26367188 C28.82998047 26.27333984 29.67753906 26.28300781 30.55078125 26.29296875 C31.33106689 26.3086792 32.11135254 26.32438965 32.9152832 26.34057617 C35.56788933 25.90722501 36.42463577 25.15103153 38 23 C38.59222111 18.37811931 38.59222111 18.37811931 36.75463867 14.29956055 C34.52677676 12.6495106 33.30198391 12.65163791 30.55078125 12.70703125 C29.27944336 12.7215332 29.27944336 12.7215332 27.98242188 12.73632812 C27.10134766 12.76146484 26.22027344 12.78660156 25.3125 12.8125 C24.41982422 12.82603516 23.52714844 12.83957031 22.60742188 12.85351562 C20.40469017 12.88885357 18.2022688 12.94266031 16 13 Z M16 40 C16 44.29 16 48.58 16 53 C19.91739994 53.10781835 23.831841 53.18723773 27.75 53.25 C28.86117187 53.28351563 29.97234375 53.31703125 31.1171875 53.3515625 C32.18710937 53.36445313 33.25703125 53.37734375 34.359375 53.390625 C35.34389648 53.41157227 36.32841797 53.43251953 37.34277344 53.45410156 C40.76481461 52.8692985 41.94701795 51.75728084 44 49 C43.85718492 43.94307101 43.85718492 43.94307101 41 40 C38.3784358 39.72172748 38.3784358 39.72172748 35.3359375 39.8046875 C33.65371094 39.81435547 33.65371094 39.81435547 31.9375 39.82421875 C30.761875 39.84097656 29.58625 39.85773438 28.375 39.875 C27.19164062 39.88402344 26.00828125 39.89304687 24.7890625 39.90234375 C21.85928943 39.92597095 18.92961986 39.96184287 16 40 Z " fill="#01352A" transform="translate(597,274)"/>
<path d="M0 0 C5.61 0 11.22 0 17 0 C17 26.07 17 52.14 17 79 C11.39 79 5.78 79 0 79 C0 78.34 0 77.68 0 77 C-1.216875 77.350625 -2.43375 77.70125 -3.6875 78.0625 C-13.67223157 80.20655678 -22.5023959 78.6479202 -31.3984375 73.7421875 C-37.41271271 69.71460981 -41.98929374 63.91877045 -43.46875 56.71875 C-44.61980068 48.24283139 -43.39189758 41.04205481 -38.54296875 33.91796875 C-33.97705929 28.2423699 -28.38175145 23.2009118 -21 22 C-6.77023933 21.07658689 -6.77023933 21.07658689 -1 23 C-0.67 15.41 -0.34 7.82 0 0 Z M-25 42 C-27.47089738 46.73588664 -27.24720616 50.93781029 -26 56 C-24.33399472 60.07245735 -21.96454349 62.29038527 -18.03125 64.33203125 C-14.22034526 65.58523261 -10.7810603 65.21534081 -7 64 C-2.6322878 60.77169098 -0.57615921 57.16629963 1 52 C1.42029924 47.04437874 0.23433282 43.86403492 -2.9375 40.0625 C-6.0465133 36.70904339 -8.11028771 35.79381394 -12.6875 35.5625 C-18.41889113 35.6205604 -21.48845357 37.54931906 -25 42 Z " fill="#01352A" transform="translate(735,61)"/>
<path d="M0 0 C5.28 0 10.56 0 16 0 C16 25.74 16 51.48 16 78 C10.72 78 5.44 78 0 78 C0 77.34 0 76.68 0 76 C-0.65871094 76.3196875 -1.31742188 76.639375 -1.99609375 76.96875 C-10.31942215 79.82617353 -20.700966 79.18652909 -28.625 75.5 C-35.52484276 71.46799312 -41.15046958 66.0408834 -43.5546875 58.25 C-45.29416919 49.4610399 -44.26778461 42.55064691 -39.90234375 34.703125 C-36.89638321 30.43182172 -33.47289726 27.64202222 -29 25 C-28.11248047 24.46246094 -28.11248047 24.46246094 -27.20703125 23.9140625 C-20.57535335 20.72265901 -12.18336573 21.41715578 -5 22 C-2.525 22.99 -2.525 22.99 0 24 C0 16.08 0 8.16 0 0 Z M-22 38 C-26.49483717 42.98076551 -27.29983058 45.96447163 -27.21484375 52.52734375 C-26.81234859 57.15969713 -24.83077378 59.2705401 -21.4375 62.25 C-17.40568019 65.14463986 -15.00221793 65.41685149 -10 65 C-5.22076799 62.56352878 -2.33067825 59.84063945 0 55 C0.81031875 49.92310496 0.5956419 46.17001088 -1.75 41.5625 C-5.56352428 37.21931957 -7.99684751 35.47100617 -13.9765625 34.9375 C-17.27575825 35.03940566 -19.3049338 36.16245487 -22 38 Z " fill="#01352A" transform="translate(594,168)"/>
<path d="M0 0 C0.87454834 0.00523682 1.74909668 0.01047363 2.65014648 0.01586914 C3.59438477 0.0190918 4.53862305 0.02231445 5.51147461 0.02563477 C6.50469727 0.03401367 7.49791992 0.04239258 8.52124023 0.05102539 C9.51833008 0.05553711 10.51541992 0.06004883 11.54272461 0.06469727 C14.01478872 0.07652532 16.48673541 0.0930069 18.95874023 0.11352539 C21.91840251 5.81526373 24.38955421 11.54114786 26.63842773 17.55493164 C26.97367462 18.44027084 27.30892151 19.32561005 27.65432739 20.23777771 C28.71812435 23.04903801 29.77623801 25.8623919 30.83374023 28.67602539 C32.22492837 32.3656004 33.61876934 36.05416719 35.01342773 39.74243164 C35.34880554 40.63153229 35.68418335 41.52063293 36.02972412 42.43667603 C38.56277303 49.13058723 41.20921365 55.77174892 43.93188477 62.390625 C44.95874023 65.11352539 44.95874023 65.11352539 44.95874023 67.11352539 C39.34874023 67.11352539 33.73874023 67.11352539 27.95874023 67.11352539 C25.48374023 61.17352539 25.48374023 61.17352539 22.95874023 55.11352539 C13.38874023 55.11352539 3.81874023 55.11352539 -6.04125977 55.11352539 C-7.69125977 59.07352539 -9.34125977 63.03352539 -11.04125977 67.11352539 C-16.32125977 67.11352539 -21.60125977 67.11352539 -27.04125977 67.11352539 C-26.33630054 62.88377004 -25.72578003 59.86560668 -24.24707031 56.0012207 C-23.87966232 55.03291321 -23.51225433 54.06460571 -23.13371277 53.06695557 C-22.53687431 51.5199295 -22.53687431 51.5199295 -21.92797852 49.94165039 C-21.5171553 48.86405457 -21.10633209 47.78645874 -20.68305969 46.6762085 C-19.37019258 43.23662074 -18.0494993 39.80009688 -16.72875977 36.36352539 C-15.8513106 34.06683984 -14.97435226 31.76996671 -14.09790039 29.47290039 C-7.96290153 13.4182506 -7.96290153 13.4182506 -4.82177734 5.44458008 C-4.50284012 4.63365906 -4.18390289 3.82273804 -3.8553009 2.98724365 C-2.62081074 0.14575732 -2.62081074 0.14575732 0 0 Z M7.95874023 16.11352539 C3.50374023 27.99352539 3.50374023 27.99352539 -1.04125977 40.11352539 C5.22874023 40.11352539 11.49874023 40.11352539 17.95874023 40.11352539 C17.03061523 37.45290039 16.10249023 34.79227539 15.14624023 32.05102539 C14.71734497 30.81533813 14.71734497 30.81533813 14.27978516 29.5546875 C12.67663916 24.98700677 10.91669049 20.54096246 8.95874023 16.11352539 C8.62874023 16.11352539 8.29874023 16.11352539 7.95874023 16.11352539 Z " fill="#01352A" transform="translate(488.041259765625,72.886474609375)"/>
<path d="M0 0 C6.87117142 4.05193663 10.8759083 9.38754551 13.4375 16.9375 C14.56369143 22.46607611 14.4375 27.1340622 14.4375 32.9375 C1.2375 32.9375 -11.9625 32.9375 -25.5625 32.9375 C-20.65675093 38.32907261 -20.65675093 38.32907261 -14.265625 40.08984375 C-8.54846104 39.58913672 -4.85325093 38.37435144 -0.25390625 34.8984375 C0.30425781 34.58132812 0.86242187 34.26421875 1.4375 33.9375 C4.86860164 35.08120055 5.35246564 35.80253309 7.25 38.75 C7.71019531 39.43707031 8.17039062 40.12414062 8.64453125 40.83203125 C9.4375 42.9375 9.4375 42.9375 8.8125 45.03515625 C7.26575697 47.17511038 5.89002969 48.21993938 3.625 49.5625 C2.95855469 49.96726563 2.29210937 50.37203125 1.60546875 50.7890625 C-5.74904581 54.68496751 -13.39713734 54.97901084 -21.5625 53.9375 C-25.31729059 52.77701555 -28.34368855 51.17346826 -31.5625 48.9375 C-32.15546875 48.53015625 -32.7484375 48.1228125 -33.359375 47.703125 C-38.66205825 43.66048529 -42.09681122 38.41095878 -43.5625 31.9375 C-44.50718967 22.87706724 -42.6115591 15.90633705 -37.875 8.1875 C-27.8187764 -1.59693377 -13.344243 -6.15576612 0 0 Z M-23.5625 14.9375 C-24.2225 16.5875 -24.8825 18.2375 -25.5625 19.9375 C-17.9725 19.9375 -10.3825 19.9375 -2.5625 19.9375 C-5.69148914 13.41316544 -5.69148914 13.41316544 -8.4375 11.5 C-14.73373571 9.83334937 -18.43885976 11.29183291 -23.5625 14.9375 Z " fill="#01352A" transform="translate(787.5625,192.0625)"/>
<path d="M0 0 C-0.99 4.62 -1.98 9.24 -3 14 C-6.38849114 14 -7.25465529 13.39792933 -10 11.5625 C-13.87949333 8.98351864 -16.8150268 7.85938342 -21.5 7.875 C-22.2734375 7.87242187 -23.046875 7.86984375 -23.84375 7.8671875 C-26.18447017 7.91854187 -26.18447017 7.91854187 -29 9 C-29 11.64 -29 14.28 -29 17 C-28.10861328 17.2630896 -28.10861328 17.2630896 -27.19921875 17.53149414 C-24.45917171 18.35366805 -21.73005631 19.20776274 -19 20.0625 C-18.06542969 20.33771484 -17.13085938 20.61292969 -16.16796875 20.89648438 C-9.09639527 23.14653048 -2.71342387 26.36475724 1.1640625 32.98852539 C3.65386225 38.97960604 3.26107669 44.03728898 1.01171875 49.9609375 C-1.98546995 56.00160353 -8.02871508 59.81148603 -14.125 62.25 C-26.78563009 64.70044453 -37.00022499 62.02991043 -47.63671875 54.953125 C-48.31154297 54.48132813 -48.31154297 54.48132813 -49 54 C-48.48517081 48.147205 -47.54642808 42.6702363 -46 37 C-45.0925 37.53625 -44.185 38.0725 -43.25 38.625 C-41.83639645 39.4221233 -40.41919867 40.21288141 -39 41 C-38.05769531 41.52851563 -37.11539063 42.05703125 -36.14453125 42.6015625 C-29.02079575 46.41172268 -24.51922683 48.10384537 -16.5 46.5 C-16.005 46.335 -15.51 46.17 -15 46 C-15 43.36 -15 40.72 -15 38 C-19.97417768 35.63852171 -24.9317107 33.65350675 -30.1875 32 C-36.87078205 29.81753051 -42.30102012 27.30196572 -46 21 C-47.65183686 14.44922232 -47.27892713 8.91993069 -44 3 C-39.8944919 -3.09961203 -35.0962071 -5.81665128 -28.1875 -7.8125 C-17.08705119 -8.46546758 -9.39384503 -5.63630702 0 0 Z " fill="#01352A" transform="translate(710,279)"/>
<path d="M0 0 C4.72769188 3.80648721 7.35721628 7.51666461 8.6875 13.5234375 C9.13314266 18.66657401 9.20346147 23.80241299 9.25 28.9609375 C9.39390236 41.36362956 9.39390236 41.36362956 11.6875 53.5234375 C8.89525927 53.60415538 6.10533434 53.66379158 3.3125 53.7109375 C2.12140625 53.74864258 2.12140625 53.74864258 0.90625 53.78710938 C-1.16836148 53.81348155 -3.24350865 53.67830212 -5.3125 53.5234375 C-5.9725 52.5334375 -6.6325 51.5434375 -7.3125 50.5234375 C-8.02792969 50.83796875 -8.74335937 51.1525 -9.48046875 51.4765625 C-16.72462491 54.15440229 -24.09856698 54.09110858 -31.3125 51.5234375 C-35.64581047 49.15238083 -38.3753017 47.11153873 -40.3125 42.5234375 C-41.79018759 36.44086301 -41.63369028 32.0241589 -38.3125 26.5234375 C-34.12045667 21.35483863 -29.80160615 19.71647085 -23.3125 18.82421875 C-18.31584244 18.32325178 -13.32353628 17.85575753 -8.3125 17.5234375 C-9.38651108 14.60826458 -10.09060176 12.74533574 -12.3125 10.5234375 C-20.82163688 9.40748512 -26.8576633 12.65199216 -34.3125 16.5234375 C-36.33305843 12.13091917 -37.72145235 8.37002827 -38.3125 3.5234375 C-27.00099076 -4.67659642 -12.3990362 -7.91695217 0 0 Z M-9.3125 30.5234375 C-11.25066735 30.6376241 -13.18805099 30.76517173 -15.125 30.8984375 C-16.20394531 30.96804687 -17.28289063 31.03765625 -18.39453125 31.109375 C-21.49876186 31.33539483 -21.49876186 31.33539483 -24.3125 33.5234375 C-24.64593551 36.06551721 -24.64593551 36.06551721 -24.3125 38.5234375 C-23.329508 39.73963776 -23.329508 39.73963776 -21.45703125 39.54296875 C-15.91716719 39.05115502 -12.67444369 37.99062351 -8.3125 34.5234375 C-8.6425 33.2034375 -8.9725 31.8834375 -9.3125 30.5234375 Z " fill="#01352A" transform="translate(891.3125,86.4765625)"/>
<path d="M0 0 C5.22117299 4.13662786 7.36209283 8.04848915 8.6875 14.55859375 C9.12421253 19.744239 9.20296392 24.92085785 9.25 30.12109375 C9.28147886 41.99264529 9.28147886 41.99264529 11.6875 53.55859375 C8.89525927 53.63931163 6.10533434 53.69894783 3.3125 53.74609375 C2.12140625 53.78379883 2.12140625 53.78379883 0.90625 53.82226562 C-1.16836148 53.8486378 -3.24350865 53.71345837 -5.3125 53.55859375 C-5.9725 52.56859375 -6.6325 51.57859375 -7.3125 50.55859375 C-8.02792969 50.873125 -8.74335937 51.18765625 -9.48046875 51.51171875 C-16.72462491 54.18955854 -24.09856698 54.12626483 -31.3125 51.55859375 C-35.64581047 49.18753708 -38.3753017 47.14669498 -40.3125 42.55859375 C-41.79018759 36.47601926 -41.63369028 32.05931515 -38.3125 26.55859375 C-34.12045667 21.38999488 -29.80160615 19.7516271 -23.3125 18.859375 C-18.31584244 18.35840803 -13.32353628 17.89091378 -8.3125 17.55859375 C-9.56226756 13.90542704 -9.98348753 12.77793539 -13.3125 10.55859375 C-20.00842625 9.86591172 -24.4064633 11.51676282 -30.3125 14.55859375 C-31.64583333 15.22526042 -32.97916667 15.89192708 -34.3125 16.55859375 C-35.01383599 14.98134028 -35.698083 13.39648042 -36.375 11.80859375 C-36.75785156 10.926875 -37.14070312 10.04515625 -37.53515625 9.13671875 C-38.37953746 6.33625845 -38.56004559 5.18794993 -37.3125 2.55859375 C-26.94225338 -5.82093589 -11.30482993 -7.04642271 0 0 Z M-9.3125 30.55859375 C-11.25066735 30.67278035 -13.18805099 30.80032798 -15.125 30.93359375 C-16.20394531 31.00320312 -17.28289063 31.0728125 -18.39453125 31.14453125 C-21.49876186 31.37055108 -21.49876186 31.37055108 -24.3125 33.55859375 C-24.64593551 36.10067346 -24.64593551 36.10067346 -24.3125 38.55859375 C-23.329508 39.77479401 -23.329508 39.77479401 -21.45703125 39.578125 C-15.91716719 39.08631127 -12.67444369 38.02577976 -8.3125 34.55859375 C-8.6425 33.23859375 -8.9725 31.91859375 -9.3125 30.55859375 Z " fill="#01352A" transform="translate(674.3125,86.44140625)"/>
<path d="M0 0 C4.72736623 3.78387927 7.62036567 7.72777152 8.38500977 13.92041016 C8.39846436 15.06944824 8.41191895 16.21848633 8.42578125 17.40234375 C8.45220703 18.68238281 8.47863281 19.96242187 8.50585938 21.28125 C8.52070289 22.62108128 8.53436969 23.9609261 8.546875 25.30078125 C8.67179236 34.65570385 9.20888327 43.47745061 10.984375 52.67578125 C5.704375 52.67578125 0.424375 52.67578125 -5.015625 52.67578125 C-5.345625 52.01578125 -5.675625 51.35578125 -6.015625 50.67578125 C-7.51416016 51.16111328 -7.51416016 51.16111328 -9.04296875 51.65625 C-12.91673983 52.75844751 -16.54106116 52.97585952 -20.578125 52.98828125 C-21.83753906 53.00503906 -23.09695313 53.02179688 -24.39453125 53.0390625 C-29.13213736 52.56376868 -32.37305243 51.19094253 -35.87890625 47.95703125 C-36.35714844 47.36921875 -36.83539062 46.78140625 -37.328125 46.17578125 C-37.81925781 45.58796875 -38.31039062 45.00015625 -38.81640625 44.39453125 C-41.42566922 40.65487097 -41.31483491 37.08912737 -41.015625 32.67578125 C-38.97433264 26.79205621 -34.56496758 22.45045254 -29.015625 19.67578125 C-27.4243908 19.45636906 -25.82633469 19.28518273 -24.2265625 19.140625 C-23.28554688 19.05361328 -22.34453125 18.96660156 -21.375 18.87695312 C-20.39015625 18.78994141 -19.4053125 18.70292969 -18.390625 18.61328125 C-17.39804687 18.52240234 -16.40546875 18.43152344 -15.3828125 18.33789062 C-12.92738632 18.11359689 -10.47168111 17.89305018 -8.015625 17.67578125 C-8.61746249 15.65532683 -9.28868596 13.65467086 -10.015625 11.67578125 C-14.0065411 9.6803232 -18.67928852 10.15117941 -23.015625 10.67578125 C-25.85131263 11.77619734 -28.38624676 13.06525938 -31.01953125 14.58203125 C-33.015625 15.67578125 -33.015625 15.67578125 -35.015625 15.67578125 C-36.005625 11.71578125 -36.995625 7.75578125 -38.015625 3.67578125 C-26.50526667 -4.21094575 -12.54553589 -8.24212532 0 0 Z M-16.515625 30.98828125 C-17.6809375 31.04628906 -18.84625 31.10429687 -20.046875 31.1640625 C-21.0265625 31.33292969 -22.00625 31.50179687 -23.015625 31.67578125 C-25.30162528 34.3791043 -25.30162528 34.3791043 -24.703125 36.80078125 C-24.16984014 38.66171978 -24.16984014 38.66171978 -23.015625 39.67578125 C-17.11402224 39.73790338 -12.5128415 38.71174478 -8.015625 34.67578125 C-8.015625 33.35578125 -8.015625 32.03578125 -8.015625 30.67578125 C-10.85726143 30.67578125 -13.6784324 30.82821839 -16.515625 30.98828125 Z " fill="#01352A" transform="translate(923.015625,193.32421875)"/>
<path d="M0 0 C6.66666667 0 13.33333333 0 20 0 C21.10730469 -0.04640625 22.21460938 -0.0928125 23.35546875 -0.140625 C32.72442684 -0.40803665 39.58381775 0.15984152 46.875 6.5 C47.57625 7.325 48.2775 8.15 49 9 C49.556875 9.639375 50.11375 10.27875 50.6875 10.9375 C56.70541419 20.39422229 55.1415694 33.99656184 55.0625 44.75 C55.05798828 45.9359375 55.05347656 47.121875 55.04882812 48.34375 C55.03719329 51.22918911 55.01926453 54.11460174 55 57 C49.39 57 43.78 57 38 57 C37.96261719 54.61523438 37.92523437 52.23046875 37.88671875 49.7734375 C37.84043538 47.44994215 37.78922671 45.12660356 37.73754883 42.80322266 C37.70440637 41.1952476 37.67634146 39.58715919 37.65356445 37.97900391 C37.61982033 35.65999295 37.56749806 33.34201069 37.51171875 31.0234375 C37.50532883 30.31069672 37.4989389 29.59795593 37.49235535 28.86361694 C37.35688214 24.20790154 36.48783693 20.94252995 34 17 C30.32705125 14.5513675 27.26731035 14.16816562 23 15 C19.78045355 17.53453657 18.29567565 19.11297305 17 23 C16.84677641 25.58330229 16.74293111 28.14492239 16.68359375 30.73046875 C16.66281265 31.48088943 16.64203156 32.23131012 16.62062073 33.00447083 C16.55530074 35.39872184 16.49632208 37.79308139 16.4375 40.1875 C16.39429807 41.81186013 16.35068324 43.43620933 16.30664062 45.06054688 C16.1988611 49.04025502 16.09965785 53.02004701 16 57 C10.72 57 5.44 57 0 57 C0 38.19 0 19.38 0 0 Z " fill="#01352A" transform="translate(792,83)"/>
<path d="M0 0 C6.66666667 0 13.33333333 0 20 0 C21.13566406 -0.05800781 22.27132812 -0.11601562 23.44140625 -0.17578125 C33.02309117 -0.55741474 40.30221948 -0.00529973 47.83203125 6.609375 C53.82527726 12.96717369 55.46884974 20.18055933 55.29296875 28.65625 C55.28872391 29.44398804 55.28447906 30.23172607 55.28010559 31.04333496 C55.26347617 33.5292559 55.22585614 36.01432919 55.1875 38.5 C55.17243271 40.19790486 55.15874791 41.89582258 55.14648438 43.59375 C55.11619143 47.72974624 55.0574453 51.86393815 55 56 C49.72 56 44.44 56 39 56 C38.96261719 53.61523438 38.92523437 51.23046875 38.88671875 48.7734375 C38.84043538 46.44994215 38.78922671 44.12660356 38.73754883 41.80322266 C38.70440637 40.1952476 38.67634146 38.58715919 38.65356445 36.97900391 C38.61982033 34.65999295 38.56749806 32.34201069 38.51171875 30.0234375 C38.50532883 29.31069672 38.4989389 28.59795593 38.49235535 27.86361694 C38.35697419 23.21106477 37.45764772 19.95446671 35 16 C31.91359546 14.02813043 30.11496954 13.99596598 26.4375 14.125 C22.68880554 15.07921314 21.35990558 16.00473522 19 19 C17.44504302 22.10991396 17.75923044 25.43344049 17.68359375 28.8515625 C17.66281265 29.62559418 17.64203156 30.39962585 17.62062073 31.19711304 C17.55516552 33.67298392 17.49625913 36.14896202 17.4375 38.625 C17.39431093 40.30209448 17.35069652 41.97917807 17.30664062 43.65625 C17.19868658 47.77072498 17.09958386 51.88527977 17 56 C11.39 56 5.78 56 0 56 C0 37.52 0 19.04 0 0 Z " fill="#01352A" transform="translate(683,190)"/>
<path d="M0 0 C6.66666667 0 13.33333333 0 20 0 C21.13566406 -0.05800781 22.27132813 -0.11601562 23.44140625 -0.17578125 C33.02309117 -0.55741474 40.30221948 -0.00529973 47.83203125 6.609375 C53.82527726 12.96717369 55.46884974 20.18055933 55.29296875 28.65625 C55.28872391 29.44398804 55.28447906 30.23172607 55.28010559 31.04333496 C55.26347617 33.5292559 55.22585614 36.01432919 55.1875 38.5 C55.17243271 40.19790486 55.15874791 41.89582258 55.14648438 43.59375 C55.11619143 47.72974624 55.0574453 51.86393815 55 56 C49.72 56 44.44 56 39 56 C38.96261719 53.61523438 38.92523437 51.23046875 38.88671875 48.7734375 C38.84043538 46.44994215 38.78922671 44.12660356 38.73754883 41.80322266 C38.70440637 40.1952476 38.67634146 38.58715919 38.65356445 36.97900391 C38.61982033 34.65999295 38.56749806 32.34201069 38.51171875 30.0234375 C38.50532883 29.31069672 38.4989389 28.59795593 38.49235535 27.86361694 C38.35697419 23.21106477 37.45764772 19.95446671 35 16 C31.91359546 14.02813043 30.11496954 13.99596598 26.4375 14.125 C22.68880554 15.07921314 21.35990558 16.00473522 19 19 C17.44504302 22.10991396 17.75923044 25.43344049 17.68359375 28.8515625 C17.66281265 29.62559418 17.64203156 30.39962585 17.62062073 31.19711304 C17.55516552 33.67298392 17.49625913 36.14896202 17.4375 38.625 C17.39431093 40.30209448 17.35069652 41.97917807 17.30664062 43.65625 C17.19868658 47.77072498 17.09958386 51.88527977 17 56 C11.39 56 5.78 56 0 56 C0 37.52 0 19.04 0 0 Z " fill="#01352A" transform="translate(489,190)"/>
<path d="M0 0 C7.22312557 5.3461485 12.13634915 10.9923542 14 20 C14.79509942 27.95099423 12.91063782 35.1112456 8.08203125 41.5625 C2.03829906 48.06619765 -3.79646424 51.47129851 -12.65234375 52.37109375 C-22.84335878 52.70706128 -29.44434068 51.0857834 -37.3125 44.6875 C-43.18783475 39.185944 -46.11016581 33.00850774 -47 25 C-47.25063932 16.9516929 -44.34473312 10.65053729 -38.94921875 4.76171875 C-28.46947468 -5.13883393 -12.6961995 -8.48902751 0 0 Z M-28.875 16.125 C-30.56484251 20.44348642 -30.65960983 24.4267052 -30 29 C-27.36485234 34.36789338 -24.2182737 36.89901163 -18.625 38.8125 C-13.51318677 39.17762952 -10.00357694 37.85085871 -6.125 34.5625 C-2.67918789 30.40725599 -2.66184152 26.70203098 -2.71484375 21.5078125 C-3.22688637 17.00464314 -5.54401157 14.29490035 -8.8359375 11.3671875 C-15.95047751 6.872442 -23.80761399 10.38196252 -28.875 16.125 Z " fill="#01352A" transform="translate(664,194)"/>
<path d="M0 0 C5.28 0 10.56 0 16 0 C16.04898438 2.15660156 16.09796875 4.31320313 16.1484375 6.53515625 C16.20257937 8.64353871 16.25983463 10.7518155 16.31738281 12.86010742 C16.35546427 14.31575518 16.390352 15.77149037 16.421875 17.22729492 C16.46798255 19.33023148 16.52589547 21.43257675 16.5859375 23.53515625 C16.63306885 25.42826538 16.63306885 25.42826538 16.68115234 27.35961914 C17.0689369 31.78707357 17.81384112 36.02306853 20.125 39.875 C23.21643108 41.72985865 26.46184576 42.11747778 30 42 C32.83400349 40.82943334 34.37251688 39.9128537 36.10693359 37.38964844 C37.38974715 33.95712271 37.35794039 30.57243864 37.4140625 26.953125 C37.43342865 26.18192322 37.4527948 25.41072144 37.4727478 24.6161499 C37.53237077 22.16087795 37.57885914 19.70555867 37.625 17.25 C37.66319575 15.58201118 37.70224841 13.91404174 37.7421875 12.24609375 C37.83966639 8.16416526 37.91936979 4.08243508 38 0 C43.61 0 49.22 0 55 0 C55.09245306 4.80242288 55.17189182 9.60168896 55.21972656 14.40429688 C55.23969079 16.03363578 55.2668723 17.66290445 55.30175781 19.29199219 C55.56356323 31.84325168 54.9525697 41.83523297 45.8359375 51.375 C39.95224394 56.58269472 32.54610531 57 25 57 C16.93025515 56.27564703 11.4249591 53.74057416 5.8125 47.8125 C-1.43364138 38.58165021 -0.36451629 28.0182745 -0.1875 16.9375 C-0.17242751 15.29232994 -0.15874364 13.64714655 -0.14648438 12.00195312 C-0.1162482 8.00069875 -0.05749639 4.00132311 0 0 Z " fill="#01352A" transform="translate(534,83)"/>
<path d="M0 0 C2 3 2 3 1.5390625 5.69921875 C1.23742187 6.68535156 0.93578125 7.67148438 0.625 8.6875 C0.18027344 10.17830078 0.18027344 10.17830078 -0.2734375 11.69921875 C-0.51320313 12.45847656 -0.75296875 13.21773437 -1 14 C-4.90625 12.4375 -4.90625 12.4375 -8.8125 10.875 C-13.08835189 9.70123674 -17.89850388 8.94925194 -22 11 C-22.65213292 13.02463255 -22.65213292 13.02463255 -23 15 C-22.32195313 15.17015625 -21.64390625 15.3403125 -20.9453125 15.515625 C-1.84433401 20.48928699 -1.84433401 20.48928699 3 26.875 C5.01041386 31.14712946 4.80788587 35.4288851 4 40 C1.13561154 45.83486537 -2.80376328 48.92114687 -8.5625 51.75 C-16.73377127 54.53531092 -24.95188729 53.72867277 -32.73046875 50.22265625 C-36.07651814 48.42005133 -39.00745324 46.34199311 -42 44 C-41.71682074 42.39431334 -41.42312209 40.79047953 -41.125 39.1875 C-40.96257813 38.29417969 -40.80015625 37.40085938 -40.6328125 36.48046875 C-40 34 -40 34 -38 31 C-37.41992188 31.40992188 -36.83984375 31.81984375 -36.2421875 32.2421875 C-29.04060883 37.20961305 -23.78235808 39.4391179 -15 39 C-14.01 38.505 -14.01 38.505 -13 38 C-13 36.68 -13 35.36 -13 34 C-13.85722656 33.67386719 -14.71445312 33.34773438 -15.59765625 33.01171875 C-17.9540033 32.11115319 -20.30809858 31.2046784 -22.66015625 30.29296875 C-24.51709566 29.57408343 -26.37674479 28.86175104 -28.24609375 28.17578125 C-32.98500124 26.34987703 -36.6940522 23.61189561 -39 19 C-39.51322348 13.85093815 -39.61975846 9.39445654 -37.5 4.625 C-27.68436356 -5.68141826 -12.03729745 -8.55592221 0 0 Z " fill="#01352A" transform="translate(847,194)"/>
<path d="M0 0 C5.61 0 11.22 0 17 0 C17.01401855 2.74038574 17.01401855 2.74038574 17.02832031 5.53613281 C17.06385488 11.57529807 17.11765694 17.61408488 17.18390274 23.65298843 C17.22339643 27.31408723 17.25557521 30.97494485 17.27099609 34.63623047 C17.28615087 38.17026922 17.32057361 41.70364501 17.36830902 45.23738861 C17.39034624 47.24028962 17.39247476 49.24337756 17.39434814 51.24639893 C17.41406677 52.46736267 17.4337854 53.68832642 17.45410156 54.94628906 C17.46298401 56.02106506 17.47186646 57.09584106 17.48101807 58.20318604 C18.12268517 61.66115517 19.26549646 62.85625924 22 65 C24.78142043 65.50755847 27.1457229 65.19028514 30 65 C33.62870159 74.41002278 33.62870159 74.41002278 32 79 C23.59610273 81.10097432 15.69364327 80.37905351 8.203125 75.93359375 C2.83675296 71.90881472 1.03844397 66.3834892 0 60 C-0.08452744 57.97626449 -0.11778959 55.95005607 -0.11352539 53.92456055 C-0.11344986 52.72369308 -0.11337433 51.52282562 -0.11329651 50.28556824 C-0.10813522 48.99894791 -0.10297394 47.71232758 -0.09765625 46.38671875 C-0.09578956 45.04865064 -0.09436684 43.71058185 -0.09336853 42.37251282 C-0.08956314 38.8626413 -0.07974988 35.35281161 -0.06866455 31.84295654 C-0.05840777 28.25663824 -0.05386179 24.67031314 -0.04882812 21.08398438 C-0.03812572 14.05597074 -0.02054506 7.02799169 0 0 Z " fill="#01352A" transform="translate(596,61)"/>
<path d="M0 0 C5.28 0 10.56 0 16 0 C16 21.78 16 43.56 16 66 C10.72 66 5.44 66 0 66 C0 44.22 0 22.44 0 0 Z " fill="#01352B" transform="translate(567,274)"/>
<path d="M0 0 C5.28 0 10.56 0 16 0 C16 21.78 16 43.56 16 66 C10.72 66 5.44 66 0 66 C0 44.22 0 22.44 0 0 Z " fill="#01352B" transform="translate(538,274)"/>
<path d="M0 0 C5.28 0 10.56 0 16 0 C16 21.78 16 43.56 16 66 C10.72 66 5.44 66 0 66 C0 44.22 0 22.44 0 0 Z " fill="#01352B" transform="translate(461,180)"/>
<path d="M0 0 C5.61 0 11.22 0 17 0 C17 18.81 17 37.62 17 57 C11.39 57 5.78 57 0 57 C0 38.19 0 19.38 0 0 Z " fill="#01352A" transform="translate(765,83)"/>
<path d="M0 0 C5.28 0 10.56 0 16 0 C16 18.48 16 36.96 16 56 C10.72 56 5.44 56 0 56 C0 37.52 0 19.04 0 0 Z " fill="#01362A" transform="translate(860,190)"/>
<path d="M0 0 C5.53846154 3.07692308 5.53846154 3.07692308 7 6 C7.34550163 9.01079992 7.56701736 11.09264629 7 14 C4.37183571 17.23466374 2.84119769 18.59959694 -1.19140625 19.4765625 C-5.15353036 19.73131836 -8.24027586 19.31658588 -11.5625 17.0625 C-14.43391151 13.45482913 -14.77127599 11.58169193 -14.46484375 7.08984375 C-13.79035443 4.0574758 -12.53087248 2.73545542 -10 1 C-6.38069302 -0.20643566 -3.80768995 -0.32268559 0 0 Z " fill="#01352A" transform="translate(777,58)"/>
<path d="M0 0 C3.58552881 1.63687185 4.79315055 2.68972583 7 6 C7.4375 9.375 7.4375 9.375 7 13 C4.8272578 15.63016161 3.05326212 17.47336894 0 19 C-4.98109259 19.37593152 -8.05673864 19.1765161 -12 16 C-14.29809461 13.16568331 -14.98623353 11.66079057 -15.0625 8 C-12.38994781 0.45397028 -7.25132457 -0.92080312 0 0 Z " fill="#01352A" transform="translate(872,165)"/>
</svg>
