<?xml version="1.0" encoding="UTF-8"?>
<svg version="1.1" xmlns="http://www.w3.org/2000/svg" width="962" height="414">
<path d="M0 0 C2.54616023 1.6925006 5.10798131 3.35921153 7.67333984 5.02246094 C12.57303404 8.20174858 17.46198779 11.3971241 22.34814453 14.59716797 C27.24044693 17.79953252 32.13859128 20.99292866 37.03662109 24.18652344 C37.99036621 24.80857666 38.94411133 25.43062988 39.92675781 26.0715332 C49.39404061 32.24539126 58.87081374 38.40460933 68.34912109 44.56152344 C79.82809454 52.01802921 91.30140421 59.48306621 102.7644043 66.96411133 C108.27685493 70.56088433 113.79414903 74.15001301 119.31689453 77.73095703 C122.57446838 79.84467396 125.82864063 81.9635749 129.08154297 84.08447266 C130.56604659 85.05144583 132.05168216 86.01668398 133.53857422 86.97998047 C155.55047777 101.25507733 155.55047777 101.25507733 159.34912109 112.56152344 C160.05558083 117.91039872 160.03460818 123.21071201 159.99609375 128.59277344 C160.00288046 130.19377635 160.01178948 131.79477145 160.02264404 133.39575195 C160.04531909 137.71820445 160.0366503 142.04005614 160.02074862 146.36251831 C160.00802809 150.90087419 160.01984673 155.43918101 160.02767944 159.97753906 C160.03675817 167.59677296 160.02483489 175.21576398 160.00097656 182.83496094 C159.97376864 191.62497677 159.98258407 200.41441258 160.01010859 209.20441437 C160.03284945 216.77163889 160.03597549 224.33868952 160.02291524 231.90593719 C160.01514801 236.41663612 160.01400357 240.92706304 160.03059769 245.43774414 C160.04511596 249.67995144 160.03488781 253.92141605 160.0061264 258.1635437 C159.99955462 259.71384451 160.00134584 261.26420859 160.01243973 262.81448364 C160.07952638 273.14743604 158.91280983 280.96024928 152.23583984 289.15527344 C145.43996511 295.04583626 138.08935447 299.64399104 130.42480469 304.29101562 C106.53484372 318.91385224 94.80745139 334.64875543 86.42724609 361.57714844 C85.34912109 364.56152344 85.34912109 364.56152344 83.34912109 366.56152344 C78.17836698 366.89512048 73.56449073 366.4894554 68.47412109 365.56152344 C49.0493357 362.1191564 32.72495994 367.58136831 16.53662109 378.24902344 C15.112771 379.16832642 15.112771 379.16832642 13.66015625 380.10620117 C9.40980645 382.86004518 5.19048384 385.65331427 1.01708984 388.52246094 C-13.11305929 398.22962885 -25.44707943 402.98031178 -42.65087891 401.56152344 C-55.71403793 399.04295852 -66.6561573 390.65408138 -77.48291016 383.35449219 C-82.06877805 380.26893229 -86.70104665 377.25648894 -91.33837891 374.24902344 C-92.18424561 373.70020508 -93.0301123 373.15138672 -93.90161133 372.5859375 C-95.62873967 371.4657262 -97.35603533 370.34577283 -99.08349609 369.22607422 C-103.21212205 366.54929866 -107.33784393 363.8680596 -111.46337891 361.18652344 C-112.2802417 360.65567139 -113.09710449 360.12481934 -113.9387207 359.57788086 C-121.32344771 354.77741371 -128.70043715 349.96511551 -136.07714844 345.15234375 C-145.5943363 338.94402191 -155.12172934 332.7514636 -164.65087891 326.56152344 C-170.42328508 322.81188675 -176.19478255 319.06086151 -181.96484375 315.30761719 C-184.86566154 313.42190106 -187.76808233 311.5386645 -190.67041016 309.65527344 C-192.70562195 308.33244222 -194.74077923 307.00952713 -196.77587891 305.68652344 C-197.71149658 305.08018066 -198.64711426 304.47383789 -199.61108398 303.84912109 C-223.89113022 288.04964443 -223.89113022 288.04964443 -227.65087891 276.56152344 C-228.41942248 272.0339686 -228.77751534 267.6811419 -228.78459167 263.092453 C-228.78885666 261.83515884 -228.79312164 260.57786469 -228.79751587 259.2824707 C-228.79716643 257.90698239 -228.79670494 256.5314941 -228.79614258 255.15600586 C-228.79913795 253.69338394 -228.80254135 252.23076281 -228.80632019 250.7681427 C-228.81512601 246.80933009 -228.81749686 242.85053913 -228.81813598 238.89171767 C-228.81884843 236.41429849 -228.82098645 233.93688476 -228.82363319 231.45946693 C-228.83287538 222.80492429 -228.8369695 214.15039702 -228.83618164 205.49584961 C-228.83558118 197.44735497 -228.84612964 189.39892741 -228.8619253 181.35044974 C-228.87503021 174.42451641 -228.8803643 167.49860494 -228.87972623 160.57265931 C-228.87947211 156.44316738 -228.88227584 152.31373511 -228.89290428 148.1842556 C-228.90263504 144.29772082 -228.90263058 140.41130215 -228.89538765 136.52476311 C-228.89434796 135.10506774 -228.89666776 133.68536495 -228.90274811 132.26568222 C-228.98422781 111.90949065 -228.98422781 111.90949065 -223.96337891 104.81152344 C-223.50576172 104.13605469 -223.04814453 103.46058594 -222.57666016 102.76464844 C-217.81660882 97.31907246 -212.04967034 93.32419443 -205.96337891 89.49902344 C-204.45142815 88.53454329 -202.93971926 87.56968391 -201.42822266 86.60449219 C-200.64431152 86.1061084 -199.86040039 85.60772461 -199.05273438 85.09423828 C-195.02725926 82.52543031 -191.02742217 79.91739196 -187.02587891 77.31152344 C-186.19805908 76.77325928 -185.37023926 76.23499512 -184.51733398 75.68041992 C-177.07951366 70.84402918 -169.64904407 65.99637958 -162.21875 61.1484375 C-155.22061857 56.5831631 -148.21642681 52.02730336 -141.20947266 47.47558594 C-134.85194385 43.34470351 -128.50056981 39.20444172 -122.15087891 35.06152344 C-113.29358721 29.28274826 -104.430606 23.51283962 -95.56103516 17.75292969 C-92.21186056 15.57754063 -88.86589071 13.39732722 -85.52197266 11.21386719 C-81.35301445 8.49200175 -77.17436404 5.78548312 -72.9921875 3.08398438 C-70.74941863 1.62559995 -68.52163453 0.14655674 -66.29541016 -1.33691406 C-43.28922562 -16.48891692 -22.51427651 -15.00283638 0 0 Z M-60.02630615 92.98214722 C-63.01848667 95.04191356 -66.03177207 97.07050151 -69.04150391 99.10449219 C-69.62773529 99.50199173 -70.21396667 99.89949127 -70.81796265 100.30903625 C-74.99674883 103.13801579 -79.22093856 105.8672242 -83.52587891 108.49902344 C-91.2504419 113.24138629 -98.82272322 118.21517029 -106.40087891 123.18652344 C-107.01735291 123.59071503 -107.6338269 123.99490662 -108.26898193 124.41134644 C-111.25532292 126.37009658 -114.239255 128.33237123 -117.21923828 130.30078125 C-119.48387854 131.79638007 -121.756293 133.27888363 -124.03564453 134.75195312 C-125.61635742 135.78304199 -125.61635742 135.78304199 -127.22900391 136.83496094 C-128.61974121 137.73480713 -128.61974121 137.73480713 -130.03857422 138.65283203 C-134.34960342 141.80270365 -138.77581587 145.44438821 -140.26580811 150.75201416 C-140.75815903 154.34424832 -140.80650604 157.89540136 -140.81201172 161.51367188 C-140.81697662 162.29973816 -140.82194153 163.08580444 -140.82705688 163.89569092 C-140.84162044 166.48743579 -140.84847119 169.07911943 -140.85400391 171.67089844 C-140.85976061 173.48065186 -140.86551828 175.29040528 -140.87127686 177.10015869 C-140.88177067 180.89294721 -140.88762377 184.68571464 -140.89111328 188.47851562 C-140.89659127 193.32146212 -140.92061129 198.16412652 -140.94908524 203.00698471 C-140.96777608 206.74579667 -140.97292066 210.48454158 -140.97444916 214.2233963 C-140.97746222 216.00785105 -140.9854449 217.79230501 -140.99863434 219.57671356 C-141.6613789 234.08924797 -141.6613789 234.08924797 -135.71655273 246.75634766 C-135.00007568 247.24635254 -134.28359863 247.73635742 -133.54541016 248.24121094 C-132.74699707 248.80163086 -131.94858398 249.36205078 -131.12597656 249.93945312 C-129.90080322 250.74237793 -129.90080322 250.74237793 -128.65087891 251.56152344 C-127.89726074 252.07360352 -127.14364258 252.58568359 -126.3671875 253.11328125 C-124.04353875 254.66972054 -121.69613886 256.18231667 -119.33837891 257.68652344 C-117.5674799 258.82704647 -115.79664844 259.96767439 -114.02587891 261.10839844 C-113.13126953 261.68267578 -112.23666016 262.25695312 -111.31494141 262.84863281 C-107.14600316 265.52910117 -102.99238287 268.23299209 -98.83837891 270.93652344 C-97.17824266 272.01598128 -95.51808608 273.09540786 -93.85791016 274.17480469 C-93.01437988 274.72346191 -92.17084961 275.27211914 -91.30175781 275.83740234 C-89.47607083 277.02482189 -87.65021456 278.21198119 -85.82421875 279.39892578 C-82.89073247 281.30620841 -79.95821278 283.21496962 -77.02587891 285.12402344 C-76.06375488 285.74937988 -75.10163086 286.37473633 -74.11035156 287.01904297 C-69.53764295 289.99793799 -64.98466483 292.99944482 -60.47509766 296.07324219 C-59.66830566 296.62101318 -58.86151367 297.16878418 -58.03027344 297.7331543 C-56.54319134 298.74621918 -55.0606539 299.76600623 -53.58398438 300.79418945 C-45.82996055 306.07115546 -38.14769285 309.23169482 -28.65087891 307.56152344 C-19.72131208 304.19326145 -11.77686466 298.89335797 -3.90478516 293.57714844 C7.08996843 286.76647275 17.86732753 287.12301886 30.34912109 288.56152344 C30.56826172 287.97886719 30.78740234 287.39621094 31.01318359 286.79589844 C37.7852894 269.28752733 45.23379912 260.79258742 61.05322266 250.94824219 C61.80700195 250.46742188 62.56078125 249.98660156 63.33740234 249.49121094 C64.01327393 249.07081543 64.68914551 248.65041992 65.38549805 248.21728516 C68.50684076 245.58531372 70.95479658 242.67708995 71.72183704 238.56188774 C71.86812439 236.20972033 71.88970932 233.88692033 71.86669922 231.53027344 C71.8737085 230.64170654 71.88071777 229.75313965 71.88793945 228.83764648 C71.90548807 225.91195054 71.89390779 222.98722855 71.88037109 220.06152344 C71.88306691 218.02180801 71.88695007 215.98209385 71.89196777 213.94238281 C71.89785858 209.67207579 71.88931316 205.40210394 71.87060547 201.13183594 C71.84781635 195.66407592 71.86094164 190.19710133 71.88489532 184.72937012 C71.89936447 180.51882025 71.89474215 176.30845592 71.88438416 172.09790039 C71.88171997 170.08211168 71.88497578 168.066306 71.89430237 166.05053711 C71.90448621 163.23083006 71.88894116 160.41238661 71.86669922 157.59277344 C71.87479614 156.76350342 71.88289307 155.9342334 71.89123535 155.07983398 C71.81398702 149.78115054 70.8600841 146.76324902 67.34912109 142.56152344 C65.13284143 140.84087938 63.02619867 139.34817819 60.66162109 137.87402344 C59.67258789 137.23630005 59.67258789 137.23630005 58.66357422 136.58569336 C57.26593193 135.68587074 55.86497322 134.79118087 54.4609375 133.90136719 C51.75845252 132.18677325 49.07548449 130.44297141 46.39160156 128.69946289 C44.2822477 127.33062687 42.16945578 125.96722155 40.05615234 124.60449219 C34.70470511 121.14961528 29.37071339 117.66811247 24.03662109 114.18652344 C22.07048487 112.90395662 20.10433905 111.62140452 18.13818359 110.33886719 C15.30143104 108.48821484 12.46493035 106.6371841 9.62939453 104.78466797 C3.87912785 101.02832493 -1.87915702 97.28482375 -7.65087891 93.56152344 C-8.4164209 93.0668457 -9.18196289 92.57216797 -9.97070312 92.0625 C-12.15084956 90.65846506 -14.33703931 89.264457 -16.52587891 87.87402344 C-17.16195068 87.46369873 -17.79802246 87.05337402 -18.45336914 86.63061523 C-34.12167544 76.7591396 -46.11915238 83.40650632 -60.02630615 92.98214722 Z " fill="#FEFEFE" transform="translate(228.65087890625,12.4384765625)"/>
<path d="M0 0 C5.61 0 11.22 0 17 0 C17 27.72 17 55.44 17 84 C11.39 84 5.78 84 0 84 C-0.33 83.34 -0.66 82.68 -1 82 C-2.7015625 82.495 -2.7015625 82.495 -4.4375 83 C-14.11175751 85.38450009 -23.50612354 84.18602721 -32.1875 79.3125 C-39.32481164 74.75747658 -44.30084222 68.86981778 -46.6875 60.625 C-47.76622079 51.56374533 -46.63473684 43.40583918 -41.375 35.75 C-35.58557814 28.69146843 -27.92071119 24.63066764 -19 23 C-12.33774781 22.36309273 -7.68308171 23.32922957 -1 25 C-0.67 16.75 -0.34 8.5 0 0 Z M-26.3125 44.1875 C-28.64776425 48.07960708 -29.18611396 51.48673643 -29 56 C-27.32897238 61.89774456 -24.80333308 64.52524841 -20 68 C-16.78124833 69.60937584 -13.4907823 69.4623984 -10 69 C-5.19767151 66.59883576 -2.29735525 63.85978996 0 59 C0.77379561 53.70186881 0.67768515 49.43356475 -1.625 44.5625 C-5.30174503 40.59548562 -8.46572972 37.81684753 -14 37.5 C-19.36647163 37.79699938 -22.51487946 40.59515624 -26.3125 44.1875 Z " fill="#FDFDFD" transform="translate(751,62)"/>
<path d="M0 0 C5.61 0 11.22 0 17 0 C17 27.39 17 54.78 17 83 C11.39 83 5.78 83 0 83 C0 82.34 0 81.68 0 81 C-0.64839844 81.3196875 -1.29679688 81.639375 -1.96484375 81.96875 C-10.56811355 84.8918687 -21.53987994 84.30504117 -29.6875 80.4375 C-37.99939591 75.52853796 -43.82911065 69.40142139 -46.58203125 60.015625 C-48.21569095 52.1374156 -46.56826484 45.12600382 -43 38 C-38.38409225 31.11703883 -32.43745584 26.86373145 -24.875 23.6875 C-16.16985545 22.14303887 -8.48804015 22.57484567 0 25 C0 16.75 0 8.5 0 0 Z M-24.52734375 41.4296875 C-28.21119318 45.72217292 -29.37761268 49.1518816 -29.2734375 54.80859375 C-28.70247323 59.38446453 -26.90322305 63.28469011 -23.45703125 66.390625 C-18.9832306 69.29808354 -15.24366585 69.66586233 -10 69 C-5.17992686 66.58996343 -2.51360491 63.74792038 0 59 C1.34065574 53.73313818 0.96566006 50.05455444 -1 45 C-3.84752403 40.35959047 -6.886657 38.73488423 -12 37 C-16.94151805 37 -20.89589499 38.03042856 -24.52734375 41.4296875 Z " fill="#FEFEFE" transform="translate(600,168)"/>
<path d="M0 0 C7.26 0 14.52 0 22 0 C26.50051059 9.00102117 26.50051059 9.00102117 28.33422852 13.81420898 C28.74467911 14.88569687 29.1551297 15.95718475 29.57801819 17.06114197 C30.22195778 18.7614431 30.22195778 18.7614431 30.87890625 20.49609375 C31.33224838 21.68421158 31.78559052 22.87232941 32.25267029 24.09645081 C33.20678651 26.59946888 34.15934131 29.10301011 35.10913086 31.60766602 C36.31751131 34.79402477 37.53115181 37.97834631 38.74667454 41.16198635 C39.91792574 44.23086171 41.08588005 47.30098978 42.25390625 50.37109375 C42.68522354 51.50260361 43.11654083 52.63411346 43.56092834 53.7999115 C45.84548866 59.82762928 48.01142966 65.86807048 50 72 C44.06 72 38.12 72 32 72 C27 60.25 27 60.25 27 58 C11.655 58.495 11.655 58.495 -4 59 C-5.65 62.96 -7.3 66.92 -9 71 C-10 72 -10 72 -13.81640625 72.09765625 C-15.39846682 72.09098089 -16.98051159 72.07901875 -18.5625 72.0625 C-19.36880859 72.05798828 -20.17511719 72.05347656 -21.00585938 72.04882812 C-23.00393756 72.03700518 -25.00197783 72.01906914 -27 72 C-24.82229676 64.24291922 -22.11001485 56.75493317 -19.21875 49.23828125 C-18.76399292 48.04824997 -18.30923584 46.85821869 -17.84069824 45.63212585 C-16.88424567 43.13128549 -15.92649664 40.63099493 -14.96630859 38.1315918 C-13.74246794 34.94575003 -12.52302583 31.75824792 -11.30513763 28.57012653 C-10.13220609 25.50052777 -8.95672572 22.43190648 -7.78125 19.36328125 C-7.34679565 18.22772293 -6.91234131 17.09216461 -6.46472168 15.92219543 C-5.8489325 14.31969185 -5.8489325 14.31969185 -5.22070312 12.68481445 C-4.86335083 11.75345169 -4.50599854 10.82208893 -4.13781738 9.86250305 C-2.82093704 6.54951624 -1.40436818 3.27685909 0 0 Z M11 18 C9.49144661 21.6006459 7.99464176 25.20605959 6.5 28.8125 C5.85611328 30.34874023 5.85611328 30.34874023 5.19921875 31.91601562 C4.79316406 32.89892578 4.38710938 33.88183594 3.96875 34.89453125 C3.59169922 35.80050049 3.21464844 36.70646973 2.82617188 37.63989258 C1.83480087 40.05516525 1.83480087 40.05516525 2 43 C8.27 43 14.54 43 21 43 C19.03097413 37.09292238 17.01973895 31.25262088 14.8125 25.4375 C14.53986328 24.71498047 14.26722656 23.99246094 13.98632812 23.24804688 C13.3257582 21.49811603 12.66310684 19.74897111 12 18 C11.67 18 11.34 18 11 18 Z " fill="#FCFCFC" transform="translate(486,74)"/>
<path d="M0 0 C6.06033258 4.53755866 9.58342415 11.05262882 10.95703125 18.3828125 C11.47550718 23.22943528 11.33849179 28.03341956 11.2265625 32.90234375 C7.2665625 32.90234375 3.3065625 32.90234375 -0.7734375 32.90234375 C-0.25652344 33.66160156 0.26039063 34.42085937 0.79296875 35.203125 C1.45167969 36.19699219 2.11039063 37.19085938 2.7890625 38.21484375 C3.45035156 39.20097656 4.11164062 40.18710938 4.79296875 41.203125 C5.26605469 42.09386719 5.73914063 42.98460937 6.2265625 43.90234375 C4.9852201 47.62637095 3.86297193 48.02217023 0.5390625 49.96484375 C-0.31042969 50.47144531 -1.15992188 50.97804687 -2.03515625 51.5 C-10.4055913 55.78671353 -19.44397037 56.19602085 -28.62109375 54.3203125 C-36.66542146 51.5283826 -44.10465114 45.45118913 -48.3359375 38.02734375 C-51.48403446 30.52263869 -51.83573185 21.46647253 -48.7734375 13.90234375 C-44.24275803 5.66702029 -38.39287147 -0.47886343 -29.5859375 -3.97265625 C-19.19046555 -6.96583524 -9.14350831 -5.65930801 0 0 Z M-28.7734375 12.90234375 C-30.2584375 15.37734375 -30.2584375 15.37734375 -31.7734375 17.90234375 C-23.8534375 17.90234375 -15.9334375 17.90234375 -7.7734375 17.90234375 C-9.6746095 12.67761774 -9.6746095 12.67761774 -13.7734375 9.90234375 C-19.64200735 8.20948706 -24.00868509 9.1941234 -28.7734375 12.90234375 Z M-30.7734375 32.90234375 C-28.53042932 37.38836012 -26.33087365 39.14741745 -21.7734375 40.90234375 C-15.48386553 41.70101956 -11.02133808 40.47444414 -5.7734375 36.90234375 C-4.4534375 35.58234375 -3.1334375 34.26234375 -1.7734375 32.90234375 C-11.3434375 32.90234375 -20.9134375 32.90234375 -30.7734375 32.90234375 Z " fill="#FEFEFE" transform="translate(810.7734375,196.09765625)"/>
<path d="M0 0 C5.4467921 3.73777839 8.92368596 7.66443847 10.55493164 14.23535156 C11.09160035 17.56899743 11.18182872 20.79547254 11.24609375 24.171875 C11.27904752 25.57292255 11.3122589 26.97396407 11.34570312 28.375 C11.39289168 30.55789873 11.43733321 32.74077576 11.47680664 34.92382812 C11.6263466 42.82526896 11.87561446 50.32812995 14 58 C11.22858283 58.08089542 8.45952181 58.14044062 5.6875 58.1875 C4.50897461 58.22520508 4.50897461 58.22520508 3.30664062 58.26367188 C2.54931641 58.27333984 1.79199219 58.28300781 1.01171875 58.29296875 C0.31522217 58.3086792 -0.38127441 58.32438965 -1.09887695 58.34057617 C-3.54489783 57.90238443 -4.42702086 56.86562642 -6 55 C-6.70511719 55.31453125 -7.41023437 55.6290625 -8.13671875 55.953125 C-15.58312983 58.6756873 -23.59432567 58.68136484 -31 56 C-35.76155771 53.43608431 -38.53766965 50.83346329 -41 46 C-42.43038567 40.71932961 -42.427784 35.8936139 -40.1953125 30.85546875 C-36.93543432 25.79520033 -32.1690497 22.99521797 -26.375 21.6875 C-19.96650992 20.69618669 -13.46989648 20.35425946 -7 20 C-8.00161924 15.74097013 -8.00161924 15.74097013 -10.8359375 12.62109375 C-17.04258208 10.83976435 -22.90134872 12.71507568 -28.4375 15.625 C-29.64212891 16.32496094 -29.64212891 16.32496094 -30.87109375 17.0390625 C-33 18 -33 18 -36 17 C-36.94921875 14.27734375 -36.94921875 14.27734375 -37.6875 10.9375 C-38.06455078 9.28041016 -38.06455078 9.28041016 -38.44921875 7.58984375 C-38.63097656 6.73519531 -38.81273437 5.88054687 -39 5 C-27.87210353 -2.67127468 -12.61936422 -7.55464181 0 0 Z M-16.0625 34.375 C-17.12597656 34.44460937 -18.18945312 34.51421875 -19.28515625 34.5859375 C-22.14236824 34.74742847 -22.14236824 34.74742847 -24 37 C-24.2500773 39.54190002 -24.2500773 39.54190002 -24 42 C-22.87169143 43.33886622 -22.87169143 43.33886622 -19.9375 43.3125 C-15.27676697 42.94260055 -11.7389019 41.85433243 -8 39 C-6.87184635 36.3852733 -6.87184635 36.3852733 -7 34 C-10.04208337 34 -13.02803586 34.16114955 -16.0625 34.375 Z " fill="#FDFDFD" transform="translate(915,88)"/>
<path d="M0 0 C5.66533277 4.95848492 8.66300807 9.88302456 9.28710938 17.50756836 C9.31514648 19.40454468 9.31514648 19.40454468 9.34375 21.33984375 C9.3583728 22.02502579 9.37299561 22.71020782 9.38806152 23.41615295 C9.43421652 25.58987697 9.4686015 27.76351594 9.5 29.9375 C9.54145989 32.80110262 9.59522929 35.66409836 9.65625 38.52734375 C9.68428711 40.42601196 9.68428711 40.42601196 9.71289062 42.36303711 C10.01128347 46.14293349 10.92004352 49.3767029 12 53 C12 54.32 12 55.64 12 57 C6.39 57 0.78 57 -5 57 C-5.495 55.02 -5.495 55.02 -6 53 C-6.9075 53.474375 -7.815 53.94875 -8.75 54.4375 C-16.44972084 57.71729995 -25.21562748 57.90264738 -33 55 C-37.97821657 52.33023063 -41.25859376 49.53152572 -43 44 C-43.86349406 36.86538034 -43.44734717 31.73473715 -39 26 C-31.20397309 18.96456108 -18.93578871 19.60025433 -9 19 C-10.00151142 14.74277139 -10.00151142 14.74277139 -12.83203125 11.62109375 C-17.78564597 10.20195007 -22.9249738 11.03250312 -27.546875 13.1875 C-29.08191069 14.07039634 -30.59876638 14.98614252 -32.08984375 15.94140625 C-34 17 -34 17 -37 17 C-38.32 12.71 -39.64 8.42 -41 4 C-28.84872191 -4.17449617 -13.39130698 -8.54561123 0 0 Z M-17.5625 33.375 C-19.29693359 33.47941406 -19.29693359 33.47941406 -21.06640625 33.5859375 C-24.11762375 33.71672929 -24.11762375 33.71672929 -26 36 C-25.67801034 39.09926819 -25.67801034 39.09926819 -25 42 C-18.24520726 42.7342166 -13.81475715 40.27591952 -8 37 C-8 35.68 -8 34.36 -8 33 C-11.20499931 33 -14.3640826 33.16772826 -17.5625 33.375 Z " fill="#FDFDFD" transform="translate(686,89)"/>
<path d="M0 0 C5.12133018 4.88368145 7.70633603 9.35092555 8.28710938 16.56762695 C8.31514648 18.50835083 8.31514648 18.50835083 8.34375 20.48828125 C8.3583728 21.19091599 8.37299561 21.89355072 8.38806152 22.61747742 C8.4342296 24.84909443 8.46858903 27.08062963 8.5 29.3125 C8.62126839 42.28365121 8.62126839 42.28365121 11 55 C8.20775927 55.08071788 5.41783434 55.14035408 2.625 55.1875 C1.43390625 55.22520508 1.43390625 55.22520508 0.21875 55.26367188 C-1.85586148 55.29004405 -3.93100865 55.15486462 -6 55 C-6.66 54.01 -7.32 53.02 -8 52 C-8.98871094 52.48726562 -9.97742188 52.97453125 -10.99609375 53.4765625 C-14.98977327 55.18254183 -18.75714625 55.44873584 -23.0625 55.375 C-23.74376953 55.38660156 -24.42503906 55.39820313 -25.12695312 55.41015625 C-30.66581872 55.37823195 -34.56436207 54.00888086 -38.828125 50.4921875 C-42.73112674 46.05305915 -44.68303519 41.95893846 -45 36 C-44.15634269 30.93805615 -42.62903973 27.62903973 -39 24 C-31.79731851 18.90667523 -24.73747492 18.78784207 -16.1796875 18.28125 C-12.97971907 18.1218015 -12.97971907 18.1218015 -10 17 C-10.60183749 14.97954558 -11.27306096 12.97888961 -12 11 C-16.04690662 8.97654669 -20.61241137 9.4132261 -25 10 C-29.56222436 11.6898952 -33.66126385 13.76065231 -38 16 C-39.32 11.71 -40.64 7.42 -42 3 C-29.08345037 -5.53414887 -13.65171791 -10.10227125 0 0 Z M-27 34 C-27.16666667 37 -27.16666667 37 -27 40 C-25.88480761 41.31914978 -25.88480761 41.31914978 -23.0625 41.375 C-17.80045745 41.35307482 -13.47137977 38.5190872 -9 36 C-9 34.68 -9 33.36 -9 32 C-18.5525633 31.31263747 -18.5525633 31.31263747 -27 34 Z " fill="#FEFEFE" transform="translate(951,196)"/>
<path d="M0 0 C5.61 0 11.22 0 17 0 C17.33 0.66 17.66 1.32 18 2 C18.804375 1.67 19.60875 1.34 20.4375 1 C28.34865537 -1.22067519 37.00694691 -0.48020938 44.390625 3.1875 C51.59055101 7.57420989 55.31568225 12.87476735 57.57563782 20.9629364 C58.3387508 24.62610371 58.24370382 28.26885278 58.1953125 31.99609375 C58.1924826 32.82963882 58.18965271 33.6631839 58.18673706 34.52198792 C58.17562289 37.1606436 58.15053515 39.79894848 58.125 42.4375 C58.11495885 44.23632319 58.10583499 46.03515175 58.09765625 47.83398438 C58.07742152 52.22289717 58.0382571 56.6110601 58 61 C52.39 61 46.78 61 41 61 C40.96261719 58.55464844 40.92523437 56.10929687 40.88671875 53.58984375 C40.840416 51.2034445 40.78921439 48.81719668 40.73754883 46.4309082 C40.7044364 44.7812634 40.67636244 43.13150904 40.65356445 41.48168945 C40.61976467 39.10060232 40.56743996 36.72050694 40.51171875 34.33984375 C40.50532883 33.61039047 40.4989389 32.88093719 40.49235535 32.12937927 C40.33030252 26.39693056 39.18903092 21.5133318 35.3125 17.0625 C31.87846416 15.48469975 28.6637183 15.35174766 25 16 C21.71117365 17.85890185 20.35638736 19.1521848 18.89306641 22.63330078 C17.85880055 26.53229643 17.64891998 30.23673208 17.5859375 34.2421875 C17.56657135 35.01055939 17.5472052 35.77893127 17.5272522 36.57058716 C17.46785883 39.00528138 17.42123372 41.44002393 17.375 43.875 C17.33678307 45.53387386 17.29772921 47.19272867 17.2578125 48.8515625 C17.16062749 52.90093794 17.08074242 56.95013034 17 61 C11.39 61 5.78 61 0 61 C0 40.87 0 20.74 0 0 Z " fill="#FEFEFE" transform="translate(811,85)"/>
<path d="M0 0 C7.7102657 5.53529653 13.02240096 11.54348096 15 21 C15.98031688 30.01570115 13.79374125 37.76947754 8.8125 45.3125 C0.50134653 53.25426887 -7.43675158 56.42505978 -18.88476562 56.36352539 C-27.78690212 56.13403631 -34.72632922 53.32139282 -41.171875 47.1640625 C-47.25071206 39.96817419 -49.96877367 32.50441135 -49.44140625 23.1015625 C-48.06395837 13.4228579 -43.68057948 7.01195519 -36 1 C-24.76345136 -5.49781247 -11.55306509 -6.2909391 0 0 Z M-29.25390625 16.54296875 C-32.23977743 21.08939979 -32.59649409 24.63155316 -32 30 C-30.18689426 35.13713292 -27.53348822 38.00618702 -23 41 C-18.56112265 42.58071823 -15.04255584 42.33643734 -10.75 40.4375 C-6.30859132 37.87212838 -3.82689799 34.91305895 -2.40234375 29.89453125 C-1.50983717 24.86010092 -2.05554004 21.15737864 -4.64453125 16.73046875 C-7.51236226 13.06923204 -10.67958414 11.38808349 -15.2421875 10.625 C-21.24788552 10.30146071 -25.33165196 11.71651876 -29.25390625 16.54296875 Z " fill="#FEFEFE" transform="translate(675,195)"/>
<path d="M0 0 C5.61 0 11.22 0 17 0 C17.33 0.66 17.66 1.32 18 2 C18.69738281 1.67773438 19.39476562 1.35546875 20.11328125 1.0234375 C27.88474992 -1.73180579 36.49238567 -0.6250211 43.8515625 2.81640625 C51.26337656 6.89964199 55.21504799 12.84980604 57.55418396 20.90948486 C58.29792931 24.3970465 58.12088768 27.93443065 58.09765625 31.484375 C58.0962413 32.29996887 58.09482635 33.11556274 58.09336853 33.95587158 C58.08778303 36.55395212 58.07523321 39.15194563 58.0625 41.75 C58.05748312 43.51432167 58.05292054 45.27864469 58.04882812 47.04296875 C58.03867039 51.36203945 58.01909219 55.68092262 58 60 C52.39 60 46.78 60 41 60 C40.96261719 57.55464844 40.92523437 55.10929687 40.88671875 52.58984375 C40.840416 50.2034445 40.78921439 47.81719668 40.73754883 45.4309082 C40.7044364 43.7812634 40.67636244 42.13150904 40.65356445 40.48168945 C40.61976467 38.10060232 40.56743996 35.72050694 40.51171875 33.33984375 C40.50532883 32.61039047 40.4989389 31.88093719 40.49235535 31.12937927 C40.34987359 26.08923666 39.36575206 22.47756527 37 18 C33.59254913 15.52185391 31.64943093 15 27.4375 15 C23.34054818 16.19184053 21.66269233 17.71079183 19 21 C17.75526468 24.73420597 17.76790215 28.27365238 17.68359375 32.16796875 C17.66281265 32.96278152 17.64203156 33.7575943 17.62062073 34.57649231 C17.55527913 37.11340763 17.49631192 39.65042573 17.4375 42.1875 C17.39430014 43.90821372 17.35068537 45.62891708 17.30664062 47.34960938 C17.19883323 51.56630247 17.0996458 55.78307451 17 60 C11.39 60 5.78 60 0 60 C0 40.2 0 20.4 0 0 Z " fill="#FEFEFE" transform="translate(697,191)"/>
<path d="M0 0 C5.61 0 11.22 0 17 0 C17.33 0.66 17.66 1.32 18 2 C18.69738281 1.67773438 19.39476562 1.35546875 20.11328125 1.0234375 C27.88474992 -1.73180579 36.49238567 -0.6250211 43.8515625 2.81640625 C51.26337656 6.89964199 55.21504799 12.84980604 57.55418396 20.90948486 C58.29792931 24.3970465 58.12088768 27.93443065 58.09765625 31.484375 C58.0962413 32.29996887 58.09482635 33.11556274 58.09336853 33.95587158 C58.08778303 36.55395212 58.07523321 39.15194563 58.0625 41.75 C58.05748312 43.51432167 58.05292054 45.27864469 58.04882812 47.04296875 C58.03867039 51.36203945 58.01909219 55.68092262 58 60 C52.39 60 46.78 60 41 60 C40.96261719 57.55464844 40.92523437 55.10929687 40.88671875 52.58984375 C40.840416 50.2034445 40.78921439 47.81719668 40.73754883 45.4309082 C40.7044364 43.7812634 40.67636244 42.13150904 40.65356445 40.48168945 C40.61976467 38.10060232 40.56743996 35.72050694 40.51171875 33.33984375 C40.50532883 32.61039047 40.4989389 31.88093719 40.49235535 31.12937927 C40.34987359 26.08923666 39.36575206 22.47756527 37 18 C33.59254913 15.52185391 31.64943093 15 27.4375 15 C23.34054818 16.19184053 21.66269233 17.71079183 19 21 C17.75526468 24.73420597 17.76790215 28.27365238 17.68359375 32.16796875 C17.66281265 32.96278152 17.64203156 33.7575943 17.62062073 34.57649231 C17.55527913 37.11340763 17.49631192 39.65042573 17.4375 42.1875 C17.39430014 43.90821372 17.35068537 45.62891708 17.30664062 47.34960938 C17.19883323 51.56630247 17.0996458 55.78307451 17 60 C11.39 60 5.78 60 0 60 C0 40.2 0 20.4 0 0 Z " fill="#FEFEFE" transform="translate(490,191)"/>
<path d="M0 0 C5.94 0 11.88 0 18 0 C18.03738281 2.68511719 18.07476563 5.37023437 18.11328125 8.13671875 C18.1595274 10.74479191 18.21074977 13.35272331 18.26245117 15.96069336 C18.29565114 17.76952458 18.32369841 19.57845818 18.34643555 21.38745117 C18.38007258 23.99181633 18.43239195 26.5952476 18.48828125 29.19921875 C18.49467117 30.00461594 18.5010611 30.81001312 18.50764465 31.63981628 C18.62734278 36.23813044 19.0784109 39.23643614 22 43 C25.42094119 45.56570589 28.84773484 45.43708054 33 45 C37.04971884 42.5701687 38.62533364 40.44973688 40 36 C40.23190584 33.18356928 40.37131943 30.45505951 40.4140625 27.63671875 C40.43342865 26.84473587 40.4527948 26.05275299 40.4727478 25.23677063 C40.53227232 22.72045481 40.57881958 20.20409256 40.625 17.6875 C40.66320481 15.9758921 40.70225799 14.26430291 40.7421875 12.55273438 C40.83954035 8.3685899 40.91932217 4.18463185 41 0 C46.61 0 52.22 0 58 0 C58.09225388 5.53267002 58.17176099 11.06263022 58.21972656 16.59545898 C58.2397382 18.47413213 58.26695637 20.3527438 58.30175781 22.23120117 C58.3507397 24.94465373 58.37307329 27.65727696 58.390625 30.37109375 C58.41127014 31.19959335 58.43191528 32.02809296 58.45318604 32.88169861 C58.45633218 41.2140038 55.4428634 48.38417506 49.7421875 54.49609375 C43.02214445 60.29702777 34.61006898 61.22154563 26 61 C17.01911194 60.05232347 10.83988557 56.92867779 5 50 C0.44516902 43.1171443 -0.15126634 36.55639885 -0.09765625 28.41796875 C-0.09553383 27.19670036 -0.09553383 27.19670036 -0.09336853 25.95075989 C-0.08779317 23.36296844 -0.07524524 20.77526508 -0.0625 18.1875 C-0.05748181 16.42773563 -0.05291946 14.66796989 -0.04882812 12.90820312 C-0.03868481 8.60540791 -0.0191047 4.302802 0 0 Z " fill="#FDFDFD" transform="translate(537,85)"/>
<path d="M0 0 C1.890625 1.38671875 1.890625 1.38671875 3.890625 4.38671875 C3.4296875 7.0859375 3.4296875 7.0859375 2.515625 10.07421875 C2.07089844 11.56501953 2.07089844 11.56501953 1.6171875 13.0859375 C1.37742187 13.84519531 1.13765625 14.60445312 0.890625 15.38671875 C-2.26171144 14.82497022 -5.04595234 14.08615545 -7.984375 12.82421875 C-11.806672 11.35021386 -14.98644778 10.9825102 -19.109375 11.38671875 C-20.099375 12.04671875 -21.089375 12.70671875 -22.109375 13.38671875 C-22.109375 14.70671875 -22.109375 16.02671875 -22.109375 17.38671875 C-21.35914063 17.556875 -20.60890625 17.72703125 -19.8359375 17.90234375 C-0.36142549 22.51343727 -0.36142549 22.51343727 4.828125 29.3984375 C7.49723824 34.3932119 7.36182599 38.81604878 5.765625 44.13671875 C2.16705496 50.37424015 -3.02513545 54.76753418 -9.94921875 56.97265625 C-19.83655669 58.86787835 -28.36865772 57.22089722 -37.109375 52.38671875 C-39.34050561 50.83790388 -41.15546001 49.28635832 -43.109375 47.38671875 C-42.119375 43.42671875 -41.129375 39.46671875 -40.109375 35.38671875 C-36.47567953 35.38671875 -35.20236277 36.38744085 -32.171875 38.32421875 C-27.4288072 41.35033893 -24.09454565 42.53048186 -18.484375 42.51171875 C-17.70835937 42.51429688 -16.93234375 42.516875 -16.1328125 42.51953125 C-14.03978252 42.51345244 -14.03978252 42.51345244 -12.109375 41.38671875 C-11.95983537 38.95908202 -11.95983537 38.95908202 -13.109375 36.38671875 C-15.89751019 35.10290786 -18.37870367 34.17565527 -21.296875 33.32421875 C-28.41331896 31.1583445 -35.00267311 29.0871271 -39.109375 22.38671875 C-40.75418116 17.45230026 -40.6995793 13.12261376 -39.046875 8.26171875 C-30.16895211 -4.91197328 -13.70135681 -7.55389374 0 0 Z " fill="#FEFEFE" transform="translate(868.109375,194.61328125)"/>
<path d="M0 0 C5.94 0 11.88 0 18 0 C18.01458252 1.9480957 18.02916504 3.89619141 18.04418945 5.90332031 C18.09584622 12.34157068 18.16113356 18.77957005 18.23571491 25.21759415 C18.28043273 29.12079044 18.31968549 33.02388202 18.34643555 36.92724609 C18.37245484 40.69460155 18.41284682 44.46155435 18.46318626 48.22866058 C18.47986442 49.66550435 18.49137282 51.10241778 18.49761391 52.53934479 C18.50724372 54.55270928 18.53699877 56.56594702 18.56762695 58.57910156 C18.57873001 59.72493713 18.58983307 60.87077271 18.60127258 62.05133057 C19.03971313 65.29368658 19.69863113 66.7055551 22 69 C24.50880616 69.48261667 24.50880616 69.48261667 27.1875 69.25 C28.08855469 69.21390625 28.98960937 69.1778125 29.91796875 69.140625 C30.60503906 69.09421875 31.29210937 69.0478125 32 69 C32.53532823 70.55759343 33.05265378 72.12138045 33.5625 73.6875 C33.85253906 74.55761719 34.14257812 75.42773438 34.44140625 76.32421875 C35.05141961 79.24631074 34.77703633 81.14400553 34 84 C26.18280835 86.08458444 17.16941902 86.00956397 10 82 C3.78317174 76.51875066 1.16593477 71.11011345 0 63 C-0.08318298 60.84648853 -0.11785293 58.6907576 -0.11352539 56.53564453 C-0.11344986 55.27479034 -0.11337433 54.01393616 -0.11329651 52.71487427 C-0.10819109 51.3541866 -0.10297511 49.99349935 -0.09765625 48.6328125 C-0.09578912 47.22891287 -0.09436661 45.82501258 -0.09336853 44.42111206 C-0.08956658 40.74192478 -0.07975633 37.06277752 -0.06866455 33.38360596 C-0.05840031 29.62293031 -0.0538602 25.86224814 -0.04882812 22.1015625 C-0.03813179 14.73435472 -0.02055401 7.36718809 0 0 Z " fill="#FDFDFD" transform="translate(603,62)"/>
<path d="M0 0 C5.94 0 11.88 0 18 0 C18 23.43 18 46.86 18 71 C12.06 71 6.12 71 0 71 C0 47.57 0 24.14 0 0 Z " fill="#FEFEFE" transform="translate(459,180)"/>
<path d="M0 0 C5.61 0 11.22 0 17 0 C17 20.13 17 40.26 17 61 C11.39 61 5.78 61 0 61 C0 40.87 0 20.74 0 0 Z " fill="#FEFEFE" transform="translate(783,85)"/>
<path d="M0 0 C5.61 0 11.22 0 17 0 C17 19.8 17 39.6 17 60 C11.39 60 5.78 60 0 60 C0 40.2 0 20.4 0 0 Z " fill="#FEFEFE" transform="translate(884,191)"/>
<path d="M0 0 C0.85722656 0.01804687 1.71445312 0.03609375 2.59765625 0.0546875 C3.75587891 0.08949219 3.75587891 0.08949219 4.9375 0.125 C5.9275 0.125 6.9175 0.125 7.9375 0.125 C9.60416667 0.125 11.27083333 0.125 12.9375 0.125 C13.01205949 4.14509457 13.06629358 8.16491733 13.10229492 12.18554688 C13.11731428 13.55117816 13.13773608 14.91676176 13.16381836 16.28222656 C13.20050137 18.25303905 13.21568551 20.22421408 13.23046875 22.1953125 C13.2461792 23.37883301 13.26188965 24.56235352 13.27807617 25.78173828 C12.80575883 30.41823554 11.35066671 33.8001562 7.9375 37 C2.31786414 39.10736345 -3.64024314 39.02740942 -9.25 36.9375 C-11.0625 35.125 -11.0625 35.125 -11.375 32.4375 C-11.271875 31.674375 -11.16875 30.91125 -11.0625 30.125 C-10.44375 30.455 -9.825 30.785 -9.1875 31.125 C-4.88162795 32.50287906 -0.54385446 32.83138299 3.9375 32.125 C5.78130123 30.8703962 5.78130123 30.8703962 6.9375 29.125 C7.18819913 26.49929296 7.18819913 26.49929296 6.9375 24.125 C6.421875 24.455 5.90625 24.785 5.375 25.125 C1.99906926 26.50999723 -0.43665116 26.50008781 -4.0625 26.125 C-7.98715988 24.0117216 -10.70061003 21.89585603 -13.0625 18.125 C-13.97205744 13.15930802 -13.56627381 9.13254761 -11.3125 4.625 C-7.80812271 0.73124745 -5.18773846 -0.14084358 0 0 Z M-7.0625 7.125 C-8.99113839 9.66729606 -9.07152291 10.90845018 -8.9375 14.125 C-7.90558189 17.66300495 -7.10582421 19.04272554 -4.0625 21.125 C-0.60521642 21.87511367 -0.60521642 21.87511367 2.9375 21.125 C6.32427089 18.67499553 7.72448584 17.26107554 8.5 13.125 C7.79314038 9.35508205 6.75581785 7.72081908 3.9375 5.125 C-0.74509909 3.53092371 -3.2264797 4.03487254 -7.0625 7.125 Z " fill="#FDFDFD" transform="translate(643.0625,335.875)"/>
<path d="M0 0 C3.93792318 2.56821077 6.74612583 5.61725165 8.875 9.875 C9.47087851 15.60460103 9.0580973 19.92351531 5.875 24.875 C4.3125 26.75 4.3125 26.75 2.875 27.875 C2.215 27.875 1.555 27.875 0.875 27.875 C1.205 28.865 1.535 29.855 1.875 30.875 C5.85254128 31.60834429 5.85254128 31.60834429 9.875 31.875 C9.875 33.525 9.875 35.175 9.875 36.875 C1.88507787 37.6583257 1.88507787 37.6583257 -2.1875 34.5 C-4.125 31.875 -4.125 31.875 -4.125 29.875 C-5.919375 29.99875 -5.919375 29.99875 -7.75 30.125 C-12.26767329 30.10903649 -14.65926633 28.86813363 -18.125 25.875 C-22.04361483 21.5438994 -22.77238388 18.00032116 -22.5 12.33984375 C-21.91411656 8.48888075 -20.81818423 5.7190629 -18.125 2.875 C-12.40004051 -1.31005715 -6.78823558 -2.44376481 0 0 Z M-16.125 7.875 C-17.87301872 10.76303093 -18.13419717 12.44273304 -18.0625 15.8125 C-16.81485132 19.88815234 -15.27307713 21.99484432 -12.125 24.875 C-9.38055034 25.94228598 -7.04766189 26.22960868 -4.125 25.875 C-0.32939642 23.90690926 1.5038722 22.4316917 3.875 18.875 C4.42031842 15.80973649 4.41825893 12.94091671 3.875 9.875 C1.69340855 7.11930553 0.00322506 5.43911253 -3.125 3.875 C-8.79112382 3.3301804 -11.79138828 4.14607829 -16.125 7.875 Z " fill="#FDFDFD" transform="translate(481.125,278.125)"/>
<path d="M0 0 C2.475 0.495 2.475 0.495 5 1 C5.66 0.67 6.32 0.34 7 0 C9.05859375 0.05078125 9.05859375 0.05078125 11.4375 0.3125 C12.61119141 0.43044922 12.61119141 0.43044922 13.80859375 0.55078125 C16 1 16 1 19 3 C19.70125 2.505 20.4025 2.01 21.125 1.5 C24.47730606 -0.24902925 26.26724559 -0.4665943 30 0 C33.79674246 1.72579203 35.4615318 3.16115554 37 7 C37.22705078 9.19824219 37.22705078 9.19824219 37.1953125 11.546875 C37.18886719 12.39121094 37.18242188 13.23554688 37.17578125 14.10546875 C37.15902344 14.97816406 37.14226563 15.85085938 37.125 16.75 C37.11597656 17.63816406 37.10695313 18.52632813 37.09765625 19.44140625 C37.07414577 21.62788058 37.04128499 23.81380094 37 26 C35.68 26 34.36 26 33 26 C32.93941406 24.89140625 32.87882813 23.7828125 32.81640625 22.640625 C32.73197049 21.1770718 32.64732401 19.71353075 32.5625 18.25 C32.52318359 17.52039063 32.48386719 16.79078125 32.44335938 16.0390625 C32.23852902 12.5727027 31.9147998 9.34666974 31 6 C27.58357241 5.74984127 27.58357241 5.74984127 24 6 C22.0243438 8.96348429 21.73623141 9.68020373 21.5859375 13.01171875 C21.54726563 13.76904297 21.50859375 14.52636719 21.46875 15.30664062 C21.42234375 16.48516602 21.42234375 16.48516602 21.375 17.6875 C21.33632813 18.48478516 21.29765625 19.28207031 21.2578125 20.10351562 C21.16367506 22.06863475 21.08075368 24.0342854 21 26 C19.35 26 17.7 26 16 26 C15.95101562 24.80761719 15.90203125 23.61523438 15.8515625 22.38671875 C15.77652396 20.82028932 15.7009766 19.25388421 15.625 17.6875 C15.5940625 16.90181641 15.563125 16.11613281 15.53125 15.30664062 C15.49257813 14.54931641 15.45390625 13.79199219 15.4140625 13.01171875 C15.3826416 12.31522217 15.3512207 11.61872559 15.31884766 10.90112305 C15.07881747 8.67467261 15.07881747 8.67467261 13 6 C9.41642759 5.74984127 9.41642759 5.74984127 6 6 C4.89210465 10.05308333 4.66268733 14.07111374 4.4375 18.25 C4.39431641 18.99507813 4.35113281 19.74015625 4.30664062 20.5078125 C4.20103275 22.338349 4.10005799 24.16915176 4 26 C2.68 26 1.36 26 0 26 C0 17.42 0 8.84 0 0 Z " fill="#FEFEFE" transform="translate(811,282)"/>
<path d="M0 0 C2.701875 -0.103125 5.40375 -0.20625 8.1875 -0.3125 C9.02949951 -0.35802002 9.87149902 -0.40354004 10.73901367 -0.45043945 C14.88462638 -0.52681767 16.57657764 -0.30764706 20.04296875 2.2109375 C22.18314567 5.26101 22.50269904 6.31502287 22.125 9.9375 C21.90760839 13.61141825 21.8941221 14.79231642 23.625 18.1875 C25 21 25 21 24.4375 24.6875 C22.86904537 28.30176501 22.42989375 29.22389998 19 31 C15.73934936 31.36330264 12.52546808 31.28112426 9.25 31.1875 C4.67125 31.0946875 4.67125 31.0946875 0 31 C0 20.77 0 10.54 0 0 Z M4 4 C4 7.3 4 10.6 4 14 C10.80378094 14.36242424 10.80378094 14.36242424 17 12 C17.2502157 9.08365871 17.2502157 9.08365871 17 6 C13.68629 3.79086 12.6553979 3.77518447 8.8125 3.875 C7.224375 3.91625 5.63625 3.9575 4 4 Z M4 18 C4 20.64 4 23.28 4 26 C6.29141286 26.05384521 8.58318188 26.09272087 10.875 26.125 C12.15117187 26.14820313 13.42734375 26.17140625 14.7421875 26.1953125 C18.08593338 26.35641524 18.08593338 26.35641524 20 24 C19.83492354 21.42459787 19.83492354 21.42459787 19 19 C16.11584117 17.55792059 13.58278472 17.90605113 10.375 17.9375 C8.59222656 17.95103516 8.59222656 17.95103516 6.7734375 17.96484375 C5.40058594 17.98224609 5.40058594 17.98224609 4 18 Z " fill="#FDFDFD" transform="translate(460,331)"/>
<path d="M0 0 C1.65 0 3.3 0 5 0 C5 11.88 5 23.76 5 36 C3.35 36 1.7 36 0 36 C-0.33 35.34 -0.66 34.68 -1 34 C-1.7734375 34.495 -1.7734375 34.495 -2.5625 35 C-6.42375296 36.58410378 -9.91993744 36.71328634 -13.90234375 35.34765625 C-17.43615171 33.60690095 -18.89192766 32.17561755 -21 28.75 C-22.24677698 24.07458633 -22.13774579 21.70268261 -21 17 C-18.76910569 13.46134007 -16.83592674 11.57908824 -13 10 C-10.78125 9.734375 -10.78125 9.734375 -8.5 9.75 C-7.7471875 9.74484375 -6.994375 9.7396875 -6.21875 9.734375 C-4 10 -4 10 0 12 C0 8.04 0 4.08 0 0 Z M-15 17 C-17.34549674 20.51824511 -17.57991403 21.85775694 -17 26 C-15.06307631 29.02033737 -15.06307631 29.02033737 -12 31 C-8.03523594 31.62601538 -6.00237979 31.65946039 -2.625 29.4375 C-0.44773715 26.17160572 0 23.92016134 0 20 C-1.90733512 16.49050337 -3.15138412 15.28889051 -6.9375 14 C-10.60292141 14 -12.13056023 14.76821352 -15 17 Z " fill="#FDFDFD" transform="translate(581,326)"/>
<path d="M0 0 C1.32 0 2.64 0 4 0 C4 11.88 4 23.76 4 36 C2.68 36 1.36 36 0 36 C0 35.34 0 34.68 0 34 C-0.55945313 34.32097656 -1.11890625 34.64195312 -1.6953125 34.97265625 C-5.70251728 36.75891872 -9.7080113 36.67020013 -14 36 C-17.20289214 34.35933484 -19.24892499 32.0241932 -21.375 29.125 C-22.73624093 24.49678083 -22.54963256 20.53583834 -20.375 16.25 C-18.12863821 12.77479221 -16.03533044 11.21821296 -12 10 C-8.16409334 10.02587458 -4.45951642 10.27024179 -1 12 C-0.67 8.04 -0.34 4.08 0 0 Z M-14.875 17.0625 C-17.23196922 19.88873671 -17.23196922 19.88873671 -17.6875 23.5 C-17.26341126 27.20453392 -17.26341126 27.20453392 -14.375 30 C-11.20555928 32.25250083 -11.20555928 32.25250083 -7.875 32.0625 C-4.59100465 30.84884955 -3.09663152 29.79550869 -1 27 C0.08024658 24.59889783 0.08024658 24.59889783 0 22 C-1.62155629 18.51365399 -2.76453292 17.15697806 -6 15 C-10.03621805 14.38579291 -11.52111041 14.65644877 -14.875 17.0625 Z " fill="#FDFDFD" transform="translate(678,272)"/>
<path d="M0 0 C3.69390983 2.87304098 5.0623048 4.45959552 5.75 9.1875 C5.12709284 13.62571352 3.6372511 14.94106006 0.25 17.75 C-0.08 18.08 -0.41 18.41 -0.75 18.75 C-6.2153588 19.39190456 -10.39204863 19.78204304 -14.875 16.375 C-17.61099285 12.54461001 -18.29734313 10.49364047 -17.75 5.75 C-13.69299891 -1.03255394 -7.40146991 -3.3643045 0 0 Z " fill="#FDFDFD" transform="translate(797.75,60.25)"/>
<path d="M0 0 C2.93835112 1.30788882 3.85011181 2.4091091 6 5 C7.125 8.4375 7.125 8.4375 7 12 C5.40233677 15.13615374 3.99463459 17.24544962 1.1875 19.375 C-3.09562557 20.59875016 -6.68229565 20.59895652 -10.75 18.75 C-14.44810446 15.87369653 -15.83269104 14.31457042 -16.4375 9.5625 C-15.93235165 5.44914913 -14.89538484 3.89538484 -12 1 C-8.26299831 -0.86850084 -4.06934775 -0.54216425 0 0 Z " fill="#FEFEFE" transform="translate(897,165)"/>
<path d="M0 0 C1.65 0 3.3 0 5 0 C5 3.63 5 7.26 5 11 C5.66 10.67 6.32 10.34 7 10 C11.82911 9.47862706 15.74166846 9.26597327 20 11.75 C23.03048265 15.15929298 24.26062653 17.75614289 24.1953125 22.328125 C24.18886719 23.12734375 24.18242188 23.9265625 24.17578125 24.75 C24.15902344 25.575 24.14226563 26.4 24.125 27.25 C24.11597656 28.09046875 24.10695313 28.9309375 24.09765625 29.796875 C24.07415817 31.86470604 24.03828908 33.93238995 24 36 C22.35 36 20.7 36 19 36 C18.97421875 34.73542969 18.9484375 33.47085938 18.921875 32.16796875 C18.86559734 30.50777782 18.80824993 28.8476229 18.75 27.1875 C18.73582031 26.35412109 18.72164062 25.52074219 18.70703125 24.66210938 C18.61532588 19.85408429 18.61532588 19.85408429 16.1484375 15.91796875 C13.07478101 14.60467916 11.15427985 15.04000178 8 16 C6.0243438 18.96348429 5.73623141 19.68020373 5.5859375 23.01171875 C5.54726563 23.76904297 5.50859375 24.52636719 5.46875 25.30664062 C5.4378125 26.09232422 5.406875 26.87800781 5.375 27.6875 C5.33632813 28.48478516 5.29765625 29.28207031 5.2578125 30.10351562 C5.16367506 32.06863475 5.08075368 34.0342854 5 36 C3.35 36 1.7 36 0 36 C0 24.12 0 12.24 0 0 Z " fill="#FDFDFD" transform="translate(718,326)"/>
<path d="M0 0 C3.5386994 1.65139305 4.81070153 2.71605229 7 6 C7.31884766 8.26831055 7.31884766 8.26831055 7.4140625 10.88671875 C7.45273437 11.82451172 7.49140625 12.76230469 7.53125 13.72851562 C7.5621875 14.70498047 7.593125 15.68144531 7.625 16.6875 C7.66367187 17.67556641 7.70234375 18.66363281 7.7421875 19.68164062 C7.83645867 22.12090707 7.92206218 24.56016595 8 27 C7.236875 26.835 6.47375 26.67 5.6875 26.5 C2.93035035 25.98704193 0.67314356 25.87268258 -2.0859375 26.39453125 C-6.45370502 27.19205877 -8.25273282 27.50326157 -12.0625 24.9375 C-14.33639977 21.48997454 -14.75813639 20.0433941 -14 16 C-12.75 13.1875 -12.75 13.1875 -10 11 C-6.00318324 10.27717144 -2.05652978 10.07016011 2 10 C1.34 8.68 0.68 7.36 0 6 C-4.54805635 5.82164485 -7.8794254 6.00214565 -12 8 C-12.33 6.35 -12.66 4.7 -13 3 C-8.45940437 0.34209036 -5.25927594 -0.57373919 0 0 Z M-9 17 C-8.67 18.65 -8.34 20.3 -8 22 C-2.6913151 21.41825155 -2.6913151 21.41825155 2 19 C2 17.68 2 16.36 2 15 C0.1128125 14.938125 0.1128125 14.938125 -1.8125 14.875 C-2.52019531 14.85179687 -3.22789062 14.82859375 -3.95703125 14.8046875 C-6.31359719 14.86745538 -6.31359719 14.86745538 -9 17 Z " fill="#FDFDFD" transform="translate(531,335)"/>
<path d="M0 0 C2.93423195 1.79646854 4.47205355 2.9441071 6 6 C6.15123831 7.5195764 6.24881693 9.04472502 6.31640625 10.5703125 C6.35830078 11.46621094 6.40019531 12.36210937 6.44335938 13.28515625 C6.48267578 14.22230469 6.52199219 15.15945313 6.5625 16.125 C6.60568359 17.06988281 6.64886719 18.01476562 6.69335938 18.98828125 C6.79959072 21.32537092 6.90163176 23.6625683 7 26 C5.35 26 3.7 26 2 26 C1.67 25.34 1.34 24.68 1 24 C0.01 24.66 -0.98 25.32 -2 26 C-6.25763793 26.67432203 -9.84466258 26.70447403 -13.5625 24.4375 C-15.54771911 21.07125891 -15.48071685 18.84573483 -15 15 C-13.23984869 11.8149643 -12.50109084 11.16703028 -9 10 C-7.27204648 9.93197033 -5.54164635 9.91504355 -3.8125 9.9375 C-2.91144531 9.94652344 -2.01039063 9.95554687 -1.08203125 9.96484375 C-0.39496094 9.97644531 0.29210937 9.98804688 1 10 C0.19203541 7.99804656 0.19203541 7.99804656 -1 6 C-5.58367666 4.54155743 -8.60769197 5.22216103 -13 7 C-13.33 5.35 -13.66 3.7 -14 2 C-9.45763142 -0.62261465 -5.1304542 -0.69734329 0 0 Z M0 14 C-1.45947705 14.06006078 -2.91779272 14.1488689 -4.375 14.25 C-5.18710937 14.29640625 -5.99921875 14.3428125 -6.8359375 14.390625 C-9.18838927 14.7922092 -9.18838927 14.7922092 -10.2890625 17.046875 C-10.52367187 17.69140625 -10.75828125 18.3359375 -11 19 C-10.01 20.485 -10.01 20.485 -9 22 C-4.78087253 21.5205537 -2.20336822 20.83374881 1 18 C0.67 16.68 0.34 15.36 0 14 Z " fill="#FDFDFD" transform="translate(800,282)"/>
<path d="M0 0 C2.93423195 1.79646854 4.47205355 2.9441071 6 6 C6.15123831 7.5195764 6.24881693 9.04472502 6.31640625 10.5703125 C6.35830078 11.46621094 6.40019531 12.36210937 6.44335938 13.28515625 C6.48267578 14.22230469 6.52199219 15.15945313 6.5625 16.125 C6.60568359 17.06988281 6.64886719 18.01476562 6.69335938 18.98828125 C6.79959072 21.32537092 6.90163176 23.6625683 7 26 C5.35 26 3.7 26 2 26 C1.67 25.34 1.34 24.68 1 24 C0.01 24.66 -0.98 25.32 -2 26 C-6.25763793 26.67432203 -9.84466258 26.70447403 -13.5625 24.4375 C-15.54771911 21.07125891 -15.48071685 18.84573483 -15 15 C-13.23984869 11.8149643 -12.50109084 11.16703028 -9 10 C-7.27204648 9.93197033 -5.54164635 9.91504355 -3.8125 9.9375 C-2.91144531 9.94652344 -2.01039063 9.95554687 -1.08203125 9.96484375 C-0.39496094 9.97644531 0.29210937 9.98804688 1 10 C0.19203541 7.99804656 0.19203541 7.99804656 -1 6 C-5.58367666 4.54155743 -8.60769197 5.22216103 -13 7 C-13.33 5.35 -13.66 3.7 -14 2 C-9.45763142 -0.62261465 -5.1304542 -0.69734329 0 0 Z M0 14 C-1.45947705 14.06006078 -2.91779272 14.1488689 -4.375 14.25 C-5.18710937 14.29640625 -5.99921875 14.3428125 -6.8359375 14.390625 C-9.18838927 14.7922092 -9.18838927 14.7922092 -10.2890625 17.046875 C-10.52367187 17.69140625 -10.75828125 18.3359375 -11 19 C-10.01 20.485 -10.01 20.485 -9 22 C-4.78087253 21.5205537 -2.20336822 20.83374881 1 18 C0.67 16.68 0.34 15.36 0 14 Z " fill="#FDFDFD" transform="translate(618,282)"/>
<path d="M0 0 C2.91952762 1.6683015 4.55941885 2.62978011 5.60131836 5.87011719 C6.00791294 8.04227343 6.20607594 10.12151883 6.31640625 12.328125 C6.35830078 13.12734375 6.40019531 13.9265625 6.44335938 14.75 C6.48267578 15.575 6.52199219 16.4 6.5625 17.25 C6.60568359 18.09046875 6.64886719 18.9309375 6.69335938 19.796875 C6.79908543 21.86440671 6.90001295 23.93218281 7 26 C5.35 26 3.7 26 2 26 C2 25.34 2 24.68 2 24 C1.360625 24.33 0.72125 24.66 0.0625 25 C-3.91813183 26.29979815 -7.84958635 26.72282485 -12 26 C-14.230087 24.42201433 -14.89986082 23.5419297 -15.3984375 20.84375 C-15.39070312 20.0703125 -15.38296875 19.296875 -15.375 18.5 C-15.38273438 17.7265625 -15.39046875 16.953125 -15.3984375 16.15625 C-14.9056562 13.48943358 -14.1276451 12.63818683 -12 11 C-8.98509443 9.99503148 -6.95818308 9.89664697 -3.8125 9.9375 C-2.91144531 9.94652344 -2.01039063 9.95554687 -1.08203125 9.96484375 C-0.39496094 9.97644531 0.29210937 9.98804688 1 10 C0.19203541 7.99804656 0.19203541 7.99804656 -1 6 C-5.58367666 4.54155743 -8.60769197 5.22216103 -13 7 C-13.33 5.35 -13.66 3.7 -14 2 C-9.44963816 -0.6272297 -5.13822613 -0.6817711 0 0 Z M-4.4375 14.375 C-5.24058594 14.44460938 -6.04367187 14.51421875 -6.87109375 14.5859375 C-9.20713809 14.83440412 -9.20713809 14.83440412 -11 17 C-10.6814823 19.10820797 -10.6814823 19.10820797 -10 21 C-7.02943174 22.25677888 -5.93133388 21.9757649 -2.8125 20.875 C0.2175342 19.27439336 0.2175342 19.27439336 0.875 16.3125 C0.91625 15.549375 0.9575 14.78625 1 14 C-0.82113165 14 -2.62531892 14.2068296 -4.4375 14.375 Z " fill="#FDFDFD" transform="translate(555,282)"/>
<path d="M0 0 C0.845625 0.495 1.69125 0.99 2.5625 1.5 C2.2325 3.15 1.9025 4.8 1.5625 6.5 C0.5415625 6.005 0.5415625 6.005 -0.5 5.5 C-3.94590238 4.32692685 -6.82147422 4.35819507 -10.4375 4.5 C-11.0975 6.48 -11.7575 8.46 -12.4375 10.5 C-11.70144531 10.67015625 -10.96539063 10.8403125 -10.20703125 11.015625 C0.47626147 13.66880734 0.47626147 13.66880734 3.5625 17.5 C4.25657231 21.741553 4.05095367 23.72521141 1.75 27.375 C-1.86359348 30.88534796 -5.36485365 30.76558919 -10.140625 30.734375 C-13.34400837 30.40749915 -15.72101508 29.17168303 -18.4375 27.5 C-18.1075 25.85 -17.7775 24.2 -17.4375 22.5 C-16.73625 22.809375 -16.035 23.11875 -15.3125 23.4375 C-9.73250697 25.51761533 -9.73250697 25.51761533 -4.0625 24.5625 C-3.258125 24.0365625 -3.258125 24.0365625 -2.4375 23.5 C-2.4375 22.18 -2.4375 20.86 -2.4375 19.5 C-3.35273437 19.17386719 -4.26796875 18.84773438 -5.2109375 18.51171875 C-6.39945313 18.07472656 -7.58796875 17.63773437 -8.8125 17.1875 C-9.99585938 16.75824219 -11.17921875 16.32898438 -12.3984375 15.88671875 C-15.4375 14.5 -15.4375 14.5 -17.4375 11.5 C-17.90112482 7.32737663 -17.8869094 5.21285629 -15.625 1.625 C-11.11697782 -2.75422155 -5.51429894 -2.40623954 0 0 Z " fill="#FCFCFC" transform="translate(687.4375,331.5)"/>
<path d="M0 0 C3.20289214 1.64066516 5.24892499 3.9758068 7.375 6.875 C8.73624093 11.50321917 8.54963256 15.46416166 6.375 19.75 C4.16489942 23.2008588 1.93735477 24.68754841 -2 26 C-6.3212987 26.54016234 -8.39619532 26.3251256 -12.25 24.25 C-15.40304819 21.6702333 -17.68191052 19.73659661 -18.43359375 15.6328125 C-18.44246991 9.93431526 -17.97753588 6.41948432 -14 2 C-9.57003962 -0.72395436 -5.0525669 -0.78896549 0 0 Z M-12 7 C-13.92863839 9.54229606 -14.00902291 10.78345018 -13.875 14 C-12.84308189 17.53800495 -12.04332421 18.91772554 -9 21 C-4.59231863 21.72125695 -2.74062512 21.52001338 0.9375 18.9375 C3.52001338 15.25937488 3.72125695 13.40768137 3 9 C0.94502229 5.99657104 -0.47633714 5.16712644 -3.9375 4.0625 C-7.65042412 3.98672604 -9.12800603 4.6864493 -12 7 Z " fill="#FDFDFD" transform="translate(764,336)"/>
<path d="M0 0 C3.20289214 1.64066516 5.24892499 3.9758068 7.375 6.875 C8.73624093 11.50321917 8.54963256 15.46416166 6.375 19.75 C4.16489942 23.2008588 1.93735477 24.68754841 -2 26 C-6.3212987 26.54016234 -8.39619532 26.3251256 -12.25 24.25 C-15.40304819 21.6702333 -17.68191052 19.73659661 -18.43359375 15.6328125 C-18.44246991 9.93431526 -17.97753588 6.41948432 -14 2 C-9.57003962 -0.72395436 -5.0525669 -0.78896549 0 0 Z M-12 7 C-13.92863839 9.54229606 -14.00902291 10.78345018 -13.875 14 C-12.84308189 17.53800495 -12.04332421 18.91772554 -9 21 C-4.59231863 21.72125695 -2.74062512 21.52001338 0.9375 18.9375 C3.52001338 15.25937488 3.72125695 13.40768137 3 9 C0.94502229 5.99657104 -0.47633714 5.16712644 -3.9375 4.0625 C-7.65042412 3.98672604 -9.12800603 4.6864493 -12 7 Z " fill="#FDFDFD" transform="translate(507,336)"/>
<path d="M0 0 C3.97521886 2.28485553 6.54218476 4.62655429 8 9 C8.38773716 13.73039335 8.48117872 16.05546399 6.3125 20.3125 C2.94954371 24.22080055 0.73527651 25.81069711 -4.4375 26.375 C-9.81948115 25.80847567 -12.78370537 24.3763334 -16.375 20.3125 C-18.49783872 15.98517492 -18.53204782 13.78843042 -18 9 C-14.52543428 0.95363729 -8.38388983 -1.7602257 0 0 Z M-11 6 C-13.44396979 9.66595469 -13.8316352 12.73894128 -13 17 C-10.45005852 19.99993115 -8.87117244 20.85480459 -5 21.5 C-1.23093269 20.87182212 0.38440412 19.7650585 3 17 C4.43037039 13.60287033 4.10828396 12.29065694 2.8125 8.8125 C0.96941827 5.9525456 0.19656508 4.96865608 -3 4 C-6.78149076 4 -7.964349 4.07742103 -11 6 Z " fill="#FDFDFD" transform="translate(793,336)"/>
<path d="M0 0 C16.60714286 0 16.60714286 0 20.4375 2.75 C23.94135747 7.79555475 24.26487864 12.29233845 24.125 18.3125 C24.11597656 19.05306641 24.10695313 19.79363281 24.09765625 20.55664062 C24.07424213 22.37123467 24.03837615 24.18566071 24 26 C22.35 26 20.7 26 19 26 C18.93941406 24.80761719 18.87882813 23.61523438 18.81640625 22.38671875 C18.73198851 20.82030075 18.64734113 19.25389512 18.5625 17.6875 C18.52318359 16.90181641 18.48386719 16.11613281 18.44335938 15.30664062 C18.40146484 14.54931641 18.35957031 13.79199219 18.31640625 13.01171875 C18.27974854 12.31522217 18.24309082 11.61872559 18.20532227 10.90112305 C18.04418847 8.7783428 18.04418847 8.7783428 17 6 C15.1128125 5.9071875 15.1128125 5.9071875 13.1875 5.8125 C12.47980469 5.77769531 11.77210938 5.74289062 11.04296875 5.70703125 C8.37987771 6.08892767 7.67632018 6.93199444 6 9 C5.50176904 10.91965648 5.50176904 10.91965648 5.48828125 13.01171875 C5.45283203 13.76904297 5.41738281 14.52636719 5.38085938 15.30664062 C5.35830078 16.09232422 5.33574219 16.87800781 5.3125 17.6875 C5.27833984 18.48478516 5.24417969 19.28207031 5.20898438 20.10351562 C5.12661896 22.06851904 5.06162933 24.03423696 5 26 C3.35 26 1.7 26 0 26 C0 17.42 0 8.84 0 0 Z " fill="#FDFDFD" transform="translate(629,282)"/>
<path d="M0 0 C16.60714286 0 16.60714286 0 20.4375 2.75 C23.94135747 7.79555475 24.26487864 12.29233845 24.125 18.3125 C24.11597656 19.05306641 24.10695313 19.79363281 24.09765625 20.55664062 C24.07424213 22.37123467 24.03837615 24.18566071 24 26 C22.35 26 20.7 26 19 26 C18.93941406 24.80761719 18.87882813 23.61523438 18.81640625 22.38671875 C18.73198851 20.82030075 18.64734113 19.25389512 18.5625 17.6875 C18.52318359 16.90181641 18.48386719 16.11613281 18.44335938 15.30664062 C18.40146484 14.54931641 18.35957031 13.79199219 18.31640625 13.01171875 C18.27974854 12.31522217 18.24309082 11.61872559 18.20532227 10.90112305 C18.04418847 8.7783428 18.04418847 8.7783428 17 6 C15.1128125 5.9071875 15.1128125 5.9071875 13.1875 5.8125 C12.47980469 5.77769531 11.77210938 5.74289062 11.04296875 5.70703125 C8.37987771 6.08892767 7.67632018 6.93199444 6 9 C5.50176904 10.91965648 5.50176904 10.91965648 5.48828125 13.01171875 C5.45283203 13.76904297 5.41738281 14.52636719 5.38085938 15.30664062 C5.35830078 16.09232422 5.33574219 16.87800781 5.3125 17.6875 C5.27833984 18.48478516 5.24417969 19.28207031 5.20898438 20.10351562 C5.12661896 22.06851904 5.06162933 24.03423696 5 26 C3.35 26 1.7 26 0 26 C0 17.42 0 8.84 0 0 Z " fill="#FDFDFD" transform="translate(566,282)"/>
<path d="M0 0 C1.65 0 3.3 0 5 0 C5.33 6.6 5.66 13.2 6 20 C13.29739819 21.7209472 13.29739819 21.7209472 16.453125 19.609375 C18.6709052 15.86827103 18.67190862 12.53082738 18.75 8.25 C18.79447266 7.06083984 18.79447266 7.06083984 18.83984375 5.84765625 C18.91027787 3.89897906 18.95743482 1.94948505 19 0 C20.65 0 22.3 0 24 0 C24.08172936 2.5215021 24.14083373 5.04029917 24.1875 7.5625 C24.21263672 8.26697266 24.23777344 8.97144531 24.26367188 9.69726562 C24.34578795 15.63699531 23.453291 20.46890907 19.15234375 24.90625 C14.98074175 27.02612034 10.53474276 26.73227698 6 26 C2.58688333 23.47429367 1.33362232 22.00086696 0 18 C-0.08021999 16.59175107 -0.10765977 15.18002769 -0.09765625 13.76953125 C-0.09282227 12.56586914 -0.09282227 12.56586914 -0.08789062 11.33789062 C-0.07951172 10.50451172 -0.07113281 9.67113281 -0.0625 8.8125 C-0.05798828 7.96751953 -0.05347656 7.12253906 -0.04882812 6.25195312 C-0.03705403 4.16793845 -0.0191189 2.08396023 0 0 Z " fill="#FDFDFD" transform="translate(495,282)"/>
<path d="M0 0 C2.4375 1 2.4375 1 4 2 C3.67 3.65 3.34 5.3 3 7 C2.01 6.67 1.02 6.34 0 6 C-2.33299825 5.96045766 -4.66708189 5.95598268 -7 6 C-7.33 6.99 -7.66 7.98 -8 9 C-7.31292969 9.18175781 -6.62585938 9.36351562 -5.91796875 9.55078125 C-5.01691406 9.80214844 -4.11585938 10.05351562 -3.1875 10.3125 C-2.29417969 10.55613281 -1.40085937 10.79976563 -0.48046875 11.05078125 C2.10635939 12.04070131 3.35139995 12.7947298 5 15 C5.48364579 18.80007406 5.56743105 21.06250523 3.5625 24.375 C-0.15908299 26.73502824 -3.62337296 27.21201653 -8 27 C-13.53846154 24.92307692 -13.53846154 24.92307692 -15 22 C-14.0625 19.875 -14.0625 19.875 -13 18 C-12.34 18.495 -11.68 18.99 -11 19.5 C-7.03366759 21.48316621 -4.39696738 21.22357461 0 21 C-0.11485744 19.02496285 -0.11485744 19.02496285 -1 17 C-3.2492114 15.92871295 -3.2492114 15.92871295 -5.9375 15.375 C-10.81904762 14.18095238 -10.81904762 14.18095238 -13 12 C-13.44678306 7.97895243 -13.6808704 5.86243584 -11.125 2.625 C-7.32233748 -0.2829184 -4.77411015 -0.24693673 0 0 Z " fill="#FCFCFC" transform="translate(763,282)"/>
<path d="M0 0 C2.475 0.495 2.475 0.495 5 1 C5.66 0.67 6.32 0.34 7 0 C12.20671061 -0.64507919 15.81709835 -0.9173523 20.0625 2.375 C22.53985011 5.73140983 23.1248986 7.26520926 23.09765625 11.3515625 C23.09443359 12.20234375 23.09121094 13.053125 23.08789062 13.9296875 C23.07951172 14.81914062 23.07113281 15.70859375 23.0625 16.625 C23.05798828 17.5221875 23.05347656 18.419375 23.04882812 19.34375 C23.03702591 21.56256648 23.02056155 23.78125018 23 26 C21.68 26 20.36 26 19 26 C18.92652344 24.33710938 18.92652344 24.33710938 18.8515625 22.640625 C18.77650785 21.17705935 18.70096119 19.71351888 18.625 18.25 C18.5940625 17.52039063 18.563125 16.79078125 18.53125 16.0390625 C18.3027818 10.68815024 18.3027818 10.68815024 16 6 C12.41410857 5.00815769 10.55287397 4.81570868 7 6 C4.32729896 9.59996467 4.55776471 13.93979884 4.375 18.25 C4.33632813 18.99507813 4.29765625 19.74015625 4.2578125 20.5078125 C4.16394892 22.3381524 4.08090282 24.16904143 4 26 C2.68 26 1.36 26 0 26 C0 17.42 0 8.84 0 0 Z " fill="#FEFEFE" transform="translate(603,336)"/>
<path d="M0 0 C1 1 1 1 1.0625 3.5625 C1.041875 4.366875 1.02125 5.17125 1 6 C0.32453125 5.88140625 -0.3509375 5.7628125 -1.046875 5.640625 C-6.54702544 4.72140229 -6.54702544 4.72140229 -11.625 6.5 C-13.53123037 9.9658734 -13.62589888 12.10551807 -13 16 C-11.06873898 18.67838573 -11.06873898 18.67838573 -8 20 C-4.61498997 19.82788085 -2.03717538 19.51858769 1 18 C1 19.98 1 21.96 1 24 C-2.72916397 25.86458199 -6.93961304 25.56048286 -11 25 C-14.20750829 23.37016855 -16.25012751 21.0225534 -18.375 18.125 C-19.73624093 13.49678083 -19.54963256 9.53583834 -17.375 5.25 C-13.06187414 -1.42257102 -7.18467356 -1.63356788 0 0 Z " fill="#FDFDFD" transform="translate(880,283)"/>
<path d="M0 0 C0.77601563 0.00644531 1.55203125 0.01289063 2.3515625 0.01953125 C4.375 0.1875 4.375 0.1875 6.375 1.1875 C6.375 3.1675 6.375 5.1475 6.375 7.1875 C5.67375 6.836875 4.9725 6.48625 4.25 6.125 C0.77106684 4.99056527 -1.13724325 5.12600882 -4.625 6.1875 C-7.14724843 8.45752359 -7.57205668 9.82446007 -8.0625 13.1875 C-7.8343403 16.23422884 -7.8343403 16.23422884 -6.0625 18.5625 C-2.76351723 20.76182184 -0.51644515 20.54126774 3.375 20.1875 C4.365 19.8575 5.355 19.5275 6.375 19.1875 C6.375 21.1675 6.375 23.1475 6.375 25.1875 C1.71522851 26.74075716 -2.12652507 26.65760978 -6.8125 25.1875 C-10.62621539 22.47552461 -12.3365386 19.66910486 -13.625 15.1875 C-13.94065553 10.99929001 -13.07152896 7.89578731 -10.8125 4.3125 C-7.39725971 0.994838 -4.75259605 -0.08742234 0 0 Z " fill="#FDFDFD" transform="translate(707.625,335.8125)"/>
<path d="M0 0 C1.65 0 3.3 0 5 0 C5.33 9.9 5.66 19.8 6 30 C7.98 30.66 9.96 31.32 12 32 C12 33.65 12 35.3 12 37 C5.64096386 37.48915663 5.64096386 37.48915663 2.625 35.1875 C-0.2988646 31.25152842 -0.11775072 27.90691951 -0.09765625 23.14453125 C-0.0962413 22.48289474 -0.09482635 21.82125824 -0.09336853 21.13957214 C-0.08777996 19.03050172 -0.07522965 16.92153823 -0.0625 14.8125 C-0.05748352 13.38086091 -0.05292087 11.94922015 -0.04882812 10.51757812 C-0.0378143 7.01168412 -0.02055755 3.5058525 0 0 Z " fill="#FDFDFD" transform="translate(771,272)"/>
<path d="M0 0 C6.6 0 13.2 0 20 0 C20 1.65 20 3.3 20 5 C17.36 5 14.72 5 12 5 C12 13.58 12 22.16 12 31 C10.68 31 9.36 31 8 31 C8 22.42 8 13.84 8 5 C5.36 5 2.72 5 0 5 C0 3.35 0 1.7 0 0 Z " fill="#FEFEFE" transform="translate(705,277)"/>
<path d="M0 0 C2.66666667 0 5.33333333 0 8 0 C9.010625 -0.020625 10.02125 -0.04125 11.0625 -0.0625 C14 0 14 0 16 1 C15.67 2.65 15.34 4.3 15 6 C13.88625 5.95875 12.7725 5.9175 11.625 5.875 C7.95633975 5.58878141 7.95633975 5.58878141 6 8 C5.63168919 9.93257855 5.63168919 9.93257855 5.5859375 12.1328125 C5.54726563 12.93847656 5.50859375 13.74414062 5.46875 14.57421875 C5.4378125 15.41597656 5.406875 16.25773437 5.375 17.125 C5.33632813 17.97449219 5.29765625 18.82398438 5.2578125 19.69921875 C5.16343506 21.79911684 5.08062414 23.89952891 5 26 C3.35 26 1.7 26 0 26 C0 17.42 0 8.84 0 0 Z " fill="#FDFDFD" transform="translate(523,282)"/>
<path d="M0 0 C1.32 0 2.64 0 4 0 C4.01981934 0.83249268 4.03963867 1.66498535 4.06005859 2.52270508 C4.13820742 5.614765 4.22490206 8.70643383 4.31738281 11.7980957 C4.37444092 13.7929536 4.42164442 15.7880854 4.46875 17.78320312 C4.50742187 19.03681641 4.54609375 20.29042969 4.5859375 21.58203125 C4.6173584 22.73936768 4.6487793 23.8967041 4.68115234 25.08911133 C4.79471033 28.19127028 4.79471033 28.19127028 7 31 C8.32 31 9.64 31 11 31 C11.33 32.65 11.66 34.3 12 36 C4.66055046 36.48929664 4.66055046 36.48929664 1.890625 34.4375 C-0.72069927 31.070834 -0.45770082 28.83515136 -0.390625 24.609375 C-0.38496521 23.90476135 -0.37930542 23.20014771 -0.37347412 22.47418213 C-0.35115078 20.23208572 -0.30096754 17.99161012 -0.25 15.75 C-0.22992952 14.22658565 -0.2116797 12.70314614 -0.1953125 11.1796875 C-0.15130118 7.4526017 -0.08230372 3.72645913 0 0 Z " fill="#FEFEFE" transform="translate(805,326)"/>
<path d="M0 0 C2.475 0.495 2.475 0.495 5 1 C5.33 0.67 5.66 0.34 6 0 C7.51928038 -0.07179964 9.04167482 -0.08392007 10.5625 -0.0625 C11.38878906 -0.05347656 12.21507812 -0.04445313 13.06640625 -0.03515625 C13.70449219 -0.02355469 14.34257813 -0.01195312 15 0 C15.33 0.66 15.66 1.32 16 2 C15.67 2.99 15.34 3.98 15 5 C13.63875 4.9071875 13.63875 4.9071875 12.25 4.8125 C8.49170516 5.0293247 7.49113923 5.21330188 5 8 C4.35151128 11.0510547 4.30293973 14.07608765 4.25 17.1875 C4.22035156 18.03248047 4.19070313 18.87746094 4.16015625 19.74804688 C4.0895301 21.83151822 4.04249205 23.91576506 4 26 C2.68 26 1.36 26 0 26 C0 17.42 0 8.84 0 0 Z " fill="#FEFEFE" transform="translate(544,336)"/>
<path d="M0 0 C1.65 0 3.3 0 5 0 C5 10.23 5 20.46 5 31 C3.35 31 1.7 31 0 31 C0 20.77 0 10.54 0 0 Z " fill="#FDFDFD" transform="translate(739,277)"/>
<path d="M0 0 C1.65 0 3.3 0 5 0 C5 10.23 5 20.46 5 31 C3.35 31 1.7 31 0 31 C0 20.77 0 10.54 0 0 Z " fill="#FDFDFD" transform="translate(696,277)"/>
<path d="M0 0 C1.32 0 2.64 0 4 0 C4 8.58 4 17.16 4 26 C2.68 26 1.36 26 0 26 C0 17.42 0 8.84 0 0 Z " fill="#FEFEFE" transform="translate(592,336)"/>
<path d="M0 0 C1.32 0 2.64 0 4 0 C4 8.58 4 17.16 4 26 C2.68 26 1.36 26 0 26 C0 17.42 0 8.84 0 0 Z " fill="#FEFEFE" transform="translate(852,282)"/>
<path d="M0 0 C1.65 0.33 3.3 0.66 5 1 C6.125 4.75 6.125 4.75 5 7 C3.02 7 1.04 7 -1 7 C-1.625 5.1875 -1.625 5.1875 -2 3 C-1.34 2.01 -0.68 1.02 0 0 Z " fill="#FBFBFB" transform="translate(592,324)"/>
<path d="M0 0 C2.625 0.375 2.625 0.375 5 1 C5.33 1.99 5.66 2.98 6 4 C5.01 5.485 5.01 5.485 4 7 C2.35 6.67 0.7 6.34 -1 6 C-1.625 4.125 -1.625 4.125 -2 2 C-1.34 1.34 -0.68 0.68 0 0 Z " fill="#FDFDFD" transform="translate(852,271)"/>
</svg>
